<svg xmlns="http://www.w3.org/2000/svg" xmlns:xlink="http://www.w3.org/1999/xlink" width="500" zoomAndPan="magnify" viewBox="0 0 375 374.999991" height="500" preserveAspectRatio="xMidYMid meet" version="1.0"><defs><clipPath id="dcea29fb8d"><path d="M 84.902344 85.089844 L 290 85.089844 L 290 289 L 84.902344 289 Z M 84.902344 85.089844 " clip-rule="nonzero"/></clipPath></defs><g clip-path="url(#dcea29fb8d)"><path fill="#52a596" d="M 186.398438 86.53125 C 186.398438 90.089844 184.320312 97.761719 181.21875 105.476562 L 179.097656 110.816406 L 175.230469 111.367188 C 170.136719 112.042969 162.789062 113.910156 158.121094 115.773438 C 156.039062 116.578125 152.640625 117.894531 150.519531 118.699219 C 144.617188 120.945312 134.46875 125.988281 129.925781 128.953125 C 128.394531 129.929688 125.890625 131.539062 124.363281 132.515625 C 122.832031 133.449219 121.09375 134.761719 120.539062 135.355469 C 119.988281 135.949219 118.546875 137.09375 117.355469 137.855469 C 115.234375 139.210938 114.171875 140.144531 111.410156 143.195312 C 110.6875 144 109.203125 145.355469 108.140625 146.246094 C 106.78125 147.347656 106.019531 148.410156 105.679688 149.511719 C 105.296875 150.824219 104.746094 151.460938 103.300781 152.265625 C 101.21875 153.496094 100.203125 155.148438 100.203125 157.308594 C 100.203125 158.582031 99.988281 158.917969 98.84375 159.511719 C 95.617188 161.125 94.765625 163.15625 96.167969 165.617188 C 97.015625 167.097656 97.015625 167.097656 95.019531 167.691406 C 90.476562 169.007812 90.136719 170.488281 93.660156 173.542969 L 95.996094 175.617188 L 91.964844 176.59375 C 89.714844 177.101562 87.757812 177.738281 87.632812 177.949219 C 87.164062 178.710938 88.355469 179.515625 92.984375 181.550781 C 95.574219 182.652344 97.652344 183.714844 97.652344 183.839844 C 97.652344 184.265625 90.222656 186.003906 87.378906 186.296875 C 85.679688 186.425781 84.914062 186.679688 84.914062 187.0625 C 84.914062 187.441406 85.425781 187.65625 86.402344 187.65625 C 90.136719 187.65625 100.371094 190.535156 107.632812 193.671875 L 110.648438 194.945312 L 111.410156 199.902344 C 112.644531 208.082031 117.355469 222.027344 121.855469 230.886719 C 122.960938 233.089844 124.320312 235.84375 124.828125 237.03125 C 125.339844 238.175781 126.78125 240.675781 127.972656 242.539062 C 129.203125 244.40625 130.816406 247.03125 131.582031 248.347656 C 132.34375 249.703125 133.875 251.820312 134.976562 253.007812 C 136.082031 254.238281 137.484375 256.019531 138.121094 256.992188 C 138.714844 257.925781 139.902344 259.367188 140.796875 260.171875 C 141.6875 260.976562 143.003906 262.25 143.726562 263.054688 C 147.546875 267.25 148.566406 268.183594 149.796875 268.4375 C 150.773438 268.648438 151.410156 269.199219 152.21875 270.554688 C 153.449219 272.675781 155.105469 273.691406 157.269531 273.691406 C 158.542969 273.691406 158.882812 273.902344 159.480469 275.046875 C 161.09375 278.269531 163.128906 279.117188 165.59375 277.71875 C 167.078125 276.871094 167.078125 276.871094 167.675781 278.863281 C 168.992188 283.398438 170.519531 283.734375 173.535156 280.21875 L 175.570312 277.84375 L 176.507812 281.785156 C 177.015625 283.949219 177.652344 285.898438 177.863281 286.109375 C 178.628906 286.871094 179.4375 285.6875 181.515625 280.894531 C 182.621094 278.3125 183.683594 276.234375 183.851562 276.234375 C 184.320312 276.234375 186.019531 283.398438 186.273438 286.492188 C 186.613281 289.839844 187.460938 289.753906 187.800781 286.320312 C 188.269531 281.53125 191.113281 272.164062 194.253906 265.003906 L 195.019531 263.265625 L 199.945312 262.503906 C 208.140625 261.273438 222.109375 256.570312 230.984375 252.078125 C 233.195312 250.972656 235.996094 249.617188 237.144531 249.109375 C 238.332031 248.601562 240.792969 247.160156 242.664062 245.972656 C 244.53125 244.746094 247.164062 243.132812 248.480469 242.371094 C 249.839844 241.609375 251.960938 240.082031 253.152344 238.980469 C 254.382812 237.878906 256.164062 236.480469 257.140625 235.84375 C 258.078125 235.25 259.519531 234.0625 260.328125 233.171875 C 261.132812 232.285156 262.40625 230.96875 263.214844 230.25 C 267.417969 226.433594 268.351562 225.417969 268.605469 224.1875 C 268.820312 223.214844 269.371094 222.578125 270.730469 221.773438 C 272.855469 220.542969 273.871094 218.890625 273.871094 216.730469 C 273.871094 215.457031 274.085938 215.117188 275.273438 214.527344 C 278.457031 212.914062 279.308594 210.878906 277.90625 208.421875 C 277.058594 206.9375 277.058594 206.9375 279.09375 206.34375 C 283.597656 205.03125 283.9375 203.507812 280.410156 200.496094 L 278.078125 198.460938 L 281.984375 197.53125 C 284.148438 196.980469 286.101562 196.386719 286.355469 196.132812 C 287.078125 195.410156 285.847656 194.5625 281.089844 192.527344 C 278.5 191.425781 276.421875 190.367188 276.421875 190.199219 C 276.421875 189.730469 283.894531 187.992188 286.949219 187.738281 C 290.390625 187.484375 290.222656 186.679688 286.613281 186.296875 C 281.472656 185.707031 272.257812 182.949219 265.125 179.773438 L 263.34375 179.007812 L 262.832031 175.195312 C 261.898438 168.03125 260.15625 162.394531 255.105469 149.511719 C 253.492188 145.398438 246.867188 132.261719 245.550781 130.566406 C 244.871094 129.675781 243.597656 127.683594 242.746094 126.117188 C 241.855469 124.546875 240.242188 122.257812 239.097656 121.03125 C 237.992188 119.800781 236.546875 117.976562 235.910156 117.003906 C 235.316406 115.984375 234 114.460938 233.023438 113.613281 C 230.644531 111.449219 229.796875 110.519531 227.886719 108.230469 C 226.824219 106.957031 225.71875 106.152344 224.617188 105.8125 C 223.300781 105.433594 222.664062 104.882812 221.855469 103.441406 C 220.625 101.363281 218.96875 100.347656 216.804688 100.347656 C 215.527344 100.347656 215.191406 100.136719 214.59375 98.949219 C 212.980469 95.769531 210.941406 94.921875 208.480469 96.320312 C 206.996094 97.167969 206.996094 97.167969 206.398438 95.132812 C 205.082031 90.640625 203.554688 90.300781 200.539062 93.820312 L 198.5 96.152344 L 197.566406 92.25 C 197.015625 90.089844 196.421875 88.140625 196.167969 87.886719 C 195.445312 87.164062 194.59375 88.394531 192.558594 93.140625 C 191.453125 95.726562 190.390625 97.804688 190.222656 97.804688 C 189.796875 97.804688 188.054688 90.429688 187.757812 87.503906 C 187.632812 85.851562 187.375 85.089844 186.996094 85.089844 C 186.613281 85.089844 186.398438 85.597656 186.398438 86.53125 Z M 196.71875 92.929688 C 197.101562 94.539062 197.484375 96.195312 197.652344 96.574219 C 197.824219 97 196.929688 98.566406 195.148438 100.941406 L 192.429688 104.667969 L 191.539062 102.296875 L 190.644531 99.921875 L 193.066406 94.625 C 194.382812 91.699219 195.613281 89.453125 195.785156 89.625 C 195.910156 89.835938 196.335938 91.277344 196.71875 92.929688 Z M 188.949219 97.847656 C 189.5 99.796875 189.5 99.796875 187.503906 103.527344 C 184.402344 109.203125 183.46875 110.519531 182.324219 110.519531 C 181.8125 110.519531 181.09375 110.644531 180.710938 110.773438 C 180.199219 110.984375 180.285156 110.476562 181.175781 108.570312 C 182.832031 104.882812 185.933594 95.429688 186.484375 92.335938 L 186.996094 89.625 L 187.714844 92.761719 C 188.097656 94.5 188.652344 96.785156 188.949219 97.847656 Z M 205.296875 95.304688 C 205.679688 96.449219 205.933594 97.507812 205.847656 97.71875 C 205.761719 97.890625 204.53125 99.117188 203.085938 100.472656 L 200.457031 102.972656 L 199.777344 100.558594 C 198.925781 97.71875 199.097656 97.253906 201.6875 94.285156 C 203.765625 91.914062 204.234375 92.039062 205.296875 95.304688 Z M 212.089844 97.210938 C 212.8125 97.929688 214.128906 100.347656 213.914062 100.558594 C 213.535156 100.898438 209.289062 102.890625 208.949219 102.890625 C 208.734375 102.890625 208.351562 102 208.097656 100.855469 C 207.800781 99.753906 207.546875 98.695312 207.503906 98.480469 C 207.417969 98.058594 210.09375 96.53125 210.902344 96.53125 C 211.15625 96.53125 211.707031 96.828125 212.089844 97.210938 Z M 198.96875 101.449219 L 199.648438 103.820312 L 196.972656 106.28125 C 194.339844 108.652344 194.253906 108.695312 193.746094 107.804688 C 193.449219 107.339844 193.238281 106.621094 193.195312 106.28125 C 193.195312 105.730469 197.738281 99.074219 198.121094 99.074219 C 198.203125 99.074219 198.585938 100.136719 198.96875 101.449219 Z M 207.632812 103.3125 C 207.632812 103.863281 202.960938 107.128906 202.152344 107.128906 C 201.855469 107.128906 200.710938 104.035156 200.964844 103.949219 C 201.007812 103.949219 202.28125 102.804688 203.765625 101.40625 L 206.484375 98.90625 L 207.035156 100.769531 C 207.375 101.832031 207.632812 102.972656 207.632812 103.3125 Z M 191.453125 105.347656 C 191.496094 105.644531 190.6875 106.917969 189.710938 108.1875 C 188.097656 110.222656 187.714844 110.476562 186.273438 110.476562 L 184.617188 110.519531 L 185.464844 109.121094 C 186.65625 107.210938 188.652344 103.738281 189.371094 102.339844 L 189.96875 101.152344 L 190.6875 102.972656 C 191.113281 103.992188 191.453125 105.050781 191.453125 105.347656 Z M 218.96875 102.042969 C 220.242188 102.804688 221.515625 104.457031 221.132812 104.839844 C 221.007812 104.925781 220.074219 105.136719 218.96875 105.261719 C 217.101562 105.515625 216.972656 105.476562 216.546875 104.414062 C 215.527344 101.703125 215.527344 101.195312 216.589844 101.195312 C 217.144531 101.195312 218.203125 101.574219 218.96875 102.042969 Z M 215.273438 103.863281 C 215.570312 104.753906 215.65625 105.601562 215.527344 105.730469 C 214.976562 106.28125 210.476562 107.59375 210.179688 107.253906 C 210.007812 107.085938 209.667969 106.324219 209.414062 105.601562 C 208.988281 104.289062 208.988281 104.246094 211.582031 102.933594 C 212.980469 102.210938 214.296875 101.746094 214.46875 101.914062 C 214.59375 102.125 214.976562 102.972656 215.273438 103.863281 Z M 200.667969 106.957031 C 200.878906 108.144531 200.753906 108.355469 198.839844 109.585938 C 196.632812 110.984375 195.105469 111.324219 194.808594 110.433594 C 194.59375 109.796875 199.648438 104.964844 200.074219 105.390625 C 200.242188 105.515625 200.496094 106.238281 200.667969 106.957031 Z M 208.648438 105.941406 C 209.160156 107.933594 208.949219 108.273438 206.144531 109.460938 C 204.617188 110.09375 203.300781 110.5625 203.214844 110.476562 C 203.128906 110.390625 202.917969 109.882812 202.789062 109.375 C 202.535156 108.570312 202.875 108.1875 205.167969 106.746094 C 206.65625 105.8125 207.972656 105.007812 208.097656 105.007812 C 208.269531 105.007812 208.480469 105.433594 208.648438 105.941406 Z M 222.707031 107.636719 C 223.171875 108.484375 223.425781 109.289062 223.34375 109.375 C 223.214844 109.460938 222.070312 109.671875 220.710938 109.839844 C 218.332031 110.09375 218.332031 110.09375 217.863281 108.738281 C 217.144531 106.703125 217.269531 106.363281 218.800781 106.152344 C 221.304688 105.8125 221.8125 106.027344 222.707031 107.636719 Z M 226.910156 108.78125 C 227.589844 109.5 228.097656 110.136719 227.972656 110.222656 C 227.886719 110.347656 227.078125 110.308594 226.230469 110.222656 C 224.828125 110.011719 224.617188 109.839844 224.023438 108.144531 L 223.386719 106.28125 L 224.53125 106.875 C 225.167969 107.210938 226.230469 108.058594 226.910156 108.78125 Z M 193.195312 109.542969 C 193.195312 110.179688 191.582031 110.644531 190.222656 110.433594 C 189.289062 110.308594 189.289062 110.265625 190.6875 108.570312 L 192.132812 106.789062 L 192.640625 107.933594 C 192.9375 108.527344 193.152344 109.289062 193.195312 109.542969 Z M 216.972656 109.542969 C 216.972656 110.09375 216.761719 110.136719 213.066406 110.859375 C 211.242188 111.238281 211.027344 111.195312 210.984375 110.476562 C 210.941406 110.011719 210.902344 109.417969 210.859375 109.164062 C 210.816406 108.867188 211.960938 108.1875 213.363281 107.722656 L 215.910156 106.789062 L 216.421875 107.890625 C 216.71875 108.527344 216.929688 109.289062 216.972656 109.542969 Z M 201.898438 110.136719 C 202.238281 111.195312 201.433594 111.917969 200.199219 111.578125 C 199.734375 111.492188 199.054688 111.367188 198.714844 111.367188 C 198.164062 111.367188 200.710938 109.332031 201.347656 109.246094 C 201.515625 109.246094 201.769531 109.671875 201.898438 110.136719 Z M 209.882812 110.179688 C 210.222656 111.492188 210.09375 111.621094 207.207031 112.214844 C 205.296875 112.636719 204.488281 112.636719 204.148438 112.296875 C 203.511719 111.664062 203.554688 111.664062 206.570312 110.390625 C 209.753906 109.078125 209.628906 109.078125 209.882812 110.179688 Z M 224.445312 112.339844 L 225 113.910156 L 222.152344 113.65625 C 220.582031 113.484375 219.265625 113.359375 219.222656 113.316406 C 219.179688 113.273438 219.054688 112.765625 218.882812 112.128906 C 218.628906 111.15625 218.714844 110.984375 219.816406 110.816406 C 220.453125 110.730469 221.644531 110.644531 222.449219 110.6875 C 223.722656 110.730469 223.980469 110.898438 224.445312 112.339844 Z M 217.90625 112.425781 C 218.121094 113.484375 218.121094 113.484375 214.976562 113.484375 C 212.175781 113.484375 211.835938 113.402344 211.960938 112.722656 C 212.046875 112.214844 212.769531 111.875 214.636719 111.535156 C 216.039062 111.28125 217.3125 111.15625 217.441406 111.238281 C 217.609375 111.28125 217.820312 111.832031 217.90625 112.425781 Z M 228.183594 111.789062 C 229.117188 112.128906 230.902344 114.585938 230.476562 114.96875 C 230.390625 115.011719 229.371094 114.882812 228.140625 114.628906 C 226.441406 114.289062 225.890625 113.953125 225.71875 113.230469 C 225.59375 112.722656 225.339844 111.960938 225.167969 111.535156 C 224.957031 110.941406 225.082031 110.859375 226.015625 111.113281 C 226.613281 111.238281 227.589844 111.535156 228.183594 111.789062 Z M 182.578125 111.707031 C 182.578125 112.425781 181.515625 113.0625 180.328125 113.0625 C 178.757812 113.0625 179.011719 112.085938 180.710938 111.746094 C 182.535156 111.324219 182.578125 111.324219 182.578125 111.707031 Z M 186.1875 112.214844 C 185.761719 112.679688 184.871094 113.0625 184.191406 113.0625 C 183.089844 113.0625 183.046875 112.976562 183.511719 112.214844 C 183.894531 111.621094 184.53125 111.367188 185.507812 111.367188 C 186.910156 111.367188 186.953125 111.367188 186.1875 112.214844 Z M 190.433594 112.214844 C 190.007812 112.679688 189.117188 113.0625 188.4375 113.0625 C 187.335938 113.0625 187.25 112.976562 187.675781 112.214844 C 188.011719 111.621094 188.566406 111.367188 189.667969 111.367188 C 191.15625 111.367188 191.199219 111.367188 190.433594 112.214844 Z M 178.332031 112.171875 C 178.332031 112.425781 178.164062 112.679688 177.949219 112.851562 C 177.441406 113.144531 166.78125 114.417969 166.570312 114.164062 C 166.398438 113.992188 175.445312 112.085938 177.824219 111.832031 C 178.078125 111.832031 178.332031 111.960938 178.332031 112.171875 Z M 194.382812 112.296875 C 194.253906 112.59375 193.535156 112.890625 192.769531 112.976562 C 191.496094 113.105469 191.410156 113.0625 191.878906 112.46875 C 192.558594 111.664062 194.636719 111.535156 194.382812 112.296875 Z M 198.925781 112.636719 C 198.800781 112.851562 198.078125 113.0625 197.398438 113.0625 C 196.632812 113.0625 196.207031 112.890625 196.378906 112.636719 C 196.507812 112.382812 197.226562 112.214844 197.90625 112.214844 C 198.671875 112.214844 199.097656 112.382812 198.925781 112.636719 Z M 210.859375 113.78125 C 210.773438 113.910156 209.925781 113.824219 209.03125 113.613281 L 207.417969 113.1875 L 208.90625 112.765625 C 210.050781 112.425781 210.476562 112.46875 210.730469 112.933594 C 210.941406 113.273438 210.984375 113.65625 210.859375 113.78125 Z M 202.960938 113.316406 C 202.960938 113.402344 202.238281 113.484375 201.390625 113.441406 C 200.15625 113.441406 199.988281 113.359375 200.625 113.105469 C 201.390625 112.808594 202.960938 112.933594 202.960938 113.316406 Z M 206.398438 114.25 C 206.101562 114.332031 205.636719 114.207031 205.421875 113.992188 C 205.082031 113.65625 205.253906 113.613281 205.976562 113.78125 C 206.527344 113.953125 206.738281 114.121094 206.398438 114.25 Z M 176.972656 114.96875 C 176.71875 115.5625 176.378906 116.027344 176.210938 116.027344 C 174.851562 116.027344 161.773438 117.976562 157.566406 118.785156 C 154.636719 119.375 152.21875 119.757812 152.132812 119.671875 C 151.835938 119.375 156.125 117.765625 159.480469 116.917969 C 162.789062 116.070312 171.75 114.546875 175.148438 114.207031 C 176.082031 114.121094 176.972656 114.035156 177.144531 113.992188 C 177.3125 113.953125 177.226562 114.375 176.972656 114.96875 Z M 180.796875 114.417969 C 180.582031 115.054688 178.375 116.199219 178.035156 115.902344 C 177.949219 115.773438 178.035156 115.265625 178.332031 114.800781 C 178.839844 113.824219 181.09375 113.484375 180.796875 114.417969 Z M 184.066406 114.757812 C 183.640625 115.222656 182.832031 115.605469 182.28125 115.605469 C 181.390625 115.605469 181.347656 115.519531 181.8125 114.757812 C 182.152344 114.207031 182.832031 113.910156 183.597656 113.910156 C 184.785156 113.910156 184.828125 113.910156 184.066406 114.757812 Z M 187.675781 114.546875 C 187.375 114.882812 186.65625 115.179688 186.101562 115.179688 C 185.167969 115.179688 185.082031 115.097656 185.550781 114.546875 C 185.847656 114.207031 186.570312 113.910156 187.121094 113.910156 C 188.054688 113.910156 188.140625 113.992188 187.675781 114.546875 Z M 191.242188 114.546875 C 190.816406 114.882812 190.09375 115.179688 189.628906 115.179688 C 188.988281 115.179688 188.949219 115.054688 189.371094 114.546875 C 189.667969 114.207031 190.390625 113.910156 190.984375 113.910156 C 192.046875 113.910156 192.046875 113.953125 191.242188 114.546875 Z M 195.105469 114.332031 C 194.976562 114.546875 194.46875 114.757812 194 114.757812 C 193.535156 114.757812 193.277344 114.546875 193.40625 114.332031 C 193.535156 114.078125 194.042969 113.910156 194.511719 113.910156 C 194.976562 113.910156 195.230469 114.078125 195.105469 114.332031 Z M 233.574219 115.648438 L 234.976562 117.382812 L 233.617188 116.707031 C 232.003906 115.902344 230.730469 113.910156 231.792969 113.910156 C 232.003906 113.910156 232.8125 114.714844 233.574219 115.648438 Z M 165.890625 114.585938 C 165.761719 114.714844 165.382812 114.757812 165.082031 114.628906 C 164.746094 114.503906 164.871094 114.375 165.339844 114.375 C 165.804688 114.332031 166.058594 114.460938 165.890625 114.585938 Z M 218.757812 115.097656 C 218.96875 115.816406 218.757812 115.859375 216.167969 115.476562 C 211.960938 114.925781 211.539062 114.375 215.316406 114.332031 C 218.121094 114.332031 218.585938 114.460938 218.757812 115.097656 Z M 224.277344 114.757812 C 224.957031 114.757812 226.1875 116.707031 225.804688 117.128906 C 225.507812 117.382812 220.15625 115.902344 219.859375 115.476562 C 219.179688 114.460938 219.5625 114.207031 221.472656 114.503906 C 222.578125 114.628906 223.808594 114.757812 224.277344 114.757812 Z M 229.542969 116.070312 C 230.984375 116.453125 231.367188 116.792969 231.75 118.019531 C 232.175781 119.375 232.132812 119.417969 231.28125 119.164062 C 228.226562 118.191406 226.824219 117.34375 226.65625 116.28125 C 226.484375 115.394531 226.570312 115.179688 227.121094 115.351562 C 227.503906 115.476562 228.609375 115.773438 229.542969 116.070312 Z M 206.316406 120.140625 C 212.769531 133.363281 222.578125 147.941406 231.367188 157.308594 C 235.230469 161.421875 231.792969 158.664062 225.339844 152.476562 C 220.371094 147.6875 212.558594 138.871094 208.863281 133.828125 C 205.210938 128.871094 198.839844 118.824219 198.078125 116.792969 C 197.78125 116.027344 198.671875 115.816406 202.367188 115.6875 L 204.105469 115.605469 Z M 210.605469 116.027344 C 212.003906 116.453125 212.175781 116.707031 213.789062 120.816406 C 215.996094 126.496094 222.070312 138.703125 225.890625 145.058594 C 228.949219 150.144531 234.808594 158.75 236.84375 161.164062 C 237.441406 161.84375 236.292969 160.785156 234.339844 158.792969 C 224.742188 149.128906 212.640625 131.625 207.035156 119.292969 C 206.1875 117.46875 205.507812 115.902344 205.507812 115.773438 C 205.507812 115.433594 209.117188 115.605469 210.605469 116.027344 Z M 185.167969 116.621094 C 184.914062 116.960938 184.234375 117.300781 183.726562 117.425781 C 182.789062 117.679688 182.789062 117.679688 183.808594 116.832031 C 184.957031 115.902344 185.890625 115.730469 185.167969 116.621094 Z M 188.097656 116.453125 C 187.25 117.003906 186.695312 117.003906 187.035156 116.453125 C 187.164062 116.199219 187.632812 116.027344 188.011719 116.027344 C 188.652344 116.027344 188.652344 116.113281 188.097656 116.453125 Z M 182.152344 116.621094 C 182.152344 117.089844 180.753906 118.148438 180.199219 118.148438 C 179.691406 118.148438 179.691406 117.976562 180.03125 117.300781 C 180.414062 116.578125 182.152344 116.027344 182.152344 116.621094 Z M 199.054688 120.691406 C 208.566406 137.21875 220.625 150.992188 237.144531 164.132812 C 245.675781 170.914062 249.753906 175.789062 253.703125 184.09375 C 255.65625 188.164062 257.949219 195.367188 257.609375 196.257812 C 257.480469 196.554688 255.613281 197.828125 253.449219 199.054688 C 237.183594 208.253906 223.128906 220.542969 209.964844 237.03125 C 203.171875 245.550781 198.289062 249.617188 189.96875 253.558594 C 185.933594 255.507812 178.671875 257.796875 177.78125 257.457031 C 177.484375 257.375 176.421875 255.761719 175.402344 253.941406 C 167.972656 240.546875 156.507812 226.730469 143.511719 215.414062 C 140.835938 213.085938 137.398438 210.246094 135.871094 209.101562 C 129.671875 204.4375 123.894531 197.359375 120.371094 189.984375 C 118.671875 186.46875 116.335938 179.476562 116.335938 177.90625 C 116.335938 177.566406 117.527344 176.679688 119.140625 175.832031 C 122.070312 174.304688 129.035156 169.898438 132.941406 167.097656 C 144.828125 158.539062 155.105469 148.535156 164.488281 136.414062 C 169.628906 129.761719 176.335938 124.207031 183.386719 120.773438 C 187.589844 118.742188 194.511719 116.410156 195.910156 116.578125 C 196.464844 116.621094 197.523438 118.019531 199.054688 120.691406 Z M 218.078125 117.976562 C 219.691406 118.570312 219.859375 118.824219 220.753906 121.453125 C 224.660156 132.980469 232.558594 150.230469 238.332031 159.765625 C 239.859375 162.308594 240.964844 164.34375 240.792969 164.34375 C 240.242188 164.300781 228.4375 147.941406 228.4375 147.222656 C 228.4375 147.09375 227.632812 145.695312 226.613281 144.128906 C 222.832031 138.238281 216.929688 126.371094 214.214844 119.164062 L 213.234375 116.535156 L 214.765625 116.960938 C 215.65625 117.171875 217.101562 117.640625 218.078125 117.976562 Z M 175.402344 118.105469 C 175.105469 118.613281 174.296875 119.078125 173.320312 119.25 C 166.78125 120.351562 150.984375 123.445312 147.417969 124.292969 C 145 124.886719 142.875 125.351562 142.75 125.351562 C 142.578125 125.351562 143.640625 124.589844 145.085938 123.699219 C 148.140625 121.75 152.898438 120.4375 163.046875 118.785156 C 169.667969 117.722656 175.445312 116.960938 175.699219 117.128906 C 175.785156 117.171875 175.65625 117.597656 175.402344 118.105469 Z M 178.757812 117.214844 C 178.757812 117.808594 177.738281 118.570312 176.972656 118.570312 C 176.292969 118.570312 176.25 118.445312 176.632812 117.722656 C 177.058594 116.917969 178.757812 116.496094 178.757812 117.214844 Z M 223.765625 117.765625 C 225.082031 118.0625 226.058594 118.527344 226.316406 119.039062 C 226.78125 119.886719 226.613281 119.84375 220.792969 117.597656 C 219.648438 117.171875 221.429688 117.257812 223.765625 117.765625 Z M 236.761719 120.734375 C 237.609375 122.429688 237.566406 122.429688 235.488281 121.285156 C 234.210938 120.5625 233.449219 119.800781 233.152344 118.910156 C 232.894531 118.191406 232.683594 117.511719 232.683594 117.425781 C 232.683594 116.875 236.25 119.800781 236.761719 120.734375 Z M 182.367188 118.996094 C 182.238281 119.207031 181.898438 119.417969 181.6875 119.417969 C 181.433594 119.417969 181.390625 119.207031 181.515625 118.996094 C 181.644531 118.742188 181.984375 118.570312 182.195312 118.570312 C 182.449219 118.570312 182.492188 118.742188 182.367188 118.996094 Z M 179.265625 119.925781 C 179.011719 120.183594 178.628906 120.265625 178.460938 120.097656 C 178.289062 119.925781 178.417969 119.632812 178.757812 119.417969 C 179.5625 118.910156 179.902344 119.292969 179.265625 119.925781 Z M 230.304688 119.886719 C 232.089844 120.605469 232.726562 121.070312 233.066406 122.003906 L 233.492188 123.234375 L 230.859375 121.917969 C 228.351562 120.648438 227.632812 120.054688 227.589844 119.292969 C 227.589844 118.867188 227.632812 118.867188 230.304688 119.886719 Z M 176.675781 120.222656 C 176.421875 120.648438 175.871094 121.113281 175.402344 121.242188 C 174.679688 121.410156 174.636719 121.328125 175.0625 120.648438 C 175.316406 120.222656 175.828125 119.800781 176.210938 119.671875 C 176.546875 119.589844 176.886719 119.503906 176.972656 119.460938 C 177.015625 119.460938 176.886719 119.757812 176.675781 120.222656 Z M 231.027344 133.449219 C 235.316406 146.203125 237.566406 151.925781 242.109375 161.589844 C 243.9375 165.53125 245.253906 168.582031 245.039062 168.371094 C 244.445312 167.734375 240.667969 161.675781 237.90625 156.925781 C 234.808594 151.503906 229.457031 140.738281 227.164062 135.3125 C 225.464844 131.242188 221.21875 120.011719 221.21875 119.546875 C 221.21875 119.417969 222.621094 120.097656 224.320312 121.03125 L 227.375 122.726562 Z M 173.703125 121.070312 C 173.449219 121.496094 172.8125 121.960938 172.300781 122.089844 C 171.75 122.214844 163.300781 124.335938 153.535156 126.792969 C 143.726562 129.25 135.65625 131.203125 135.574219 131.117188 C 135.402344 130.945312 138.585938 128.320312 140.117188 127.34375 C 141.304688 126.582031 152.980469 123.953125 163.683594 121.960938 C 167.675781 121.242188 171.199219 120.605469 171.539062 120.519531 C 171.878906 120.4375 172.601562 120.351562 173.152344 120.308594 C 173.957031 120.265625 174.042969 120.394531 173.703125 121.070312 Z M 238.925781 125.988281 L 239.394531 127.472656 L 236.929688 125.566406 C 235.445312 124.421875 234.425781 123.277344 234.296875 122.640625 C 234.085938 121.621094 234.128906 121.621094 236.292969 123.0625 C 237.863281 124.125 238.628906 124.929688 238.925781 125.988281 Z M 174.511719 123.023438 C 174.214844 123.359375 173.789062 123.65625 173.578125 123.65625 C 173.320312 123.65625 173.363281 123.359375 173.660156 123.023438 C 173.957031 122.683594 174.382812 122.386719 174.59375 122.386719 C 174.851562 122.386719 174.808594 122.683594 174.511719 123.023438 Z M 233.957031 125.351562 C 234.296875 126.03125 233.871094 125.859375 232.175781 124.675781 C 228.949219 122.429688 228.777344 122.132812 231.28125 123.402344 C 232.515625 123.996094 233.703125 124.886719 233.957031 125.351562 Z M 239.902344 123.742188 C 240.539062 124.632812 240.625 124.929688 240.15625 124.546875 C 239.476562 123.996094 238.417969 122.386719 238.757812 122.386719 C 238.839844 122.386719 239.351562 123.023438 239.902344 123.742188 Z M 171.878906 123.742188 C 171.453125 124.929688 153.660156 131.03125 136.292969 135.949219 C 132.898438 136.878906 129.882812 137.769531 129.585938 137.855469 C 128.90625 138.109375 130.988281 135.398438 132.640625 133.828125 C 133.578125 132.980469 137.058594 131.964844 152.34375 128.066406 C 162.535156 125.480469 171.15625 123.316406 171.453125 123.277344 C 171.792969 123.277344 171.960938 123.488281 171.878906 123.742188 Z M 141.8125 124.546875 C 140.414062 125.648438 138.375 126.75 138.164062 126.496094 C 137.949219 126.285156 139.605469 125.140625 141.390625 124.207031 C 142.875 123.445312 143.046875 123.53125 141.8125 124.546875 Z M 234.425781 127.726562 C 234.679688 128.023438 235.699219 131.203125 236.71875 134.761719 C 240.371094 147.859375 243.046875 156.039062 247.714844 169.007812 C 248.820312 172.058594 247.503906 170.320312 245.296875 165.828125 C 239.308594 153.707031 233.234375 138.277344 229.585938 125.902344 L 228.949219 123.699219 L 231.453125 125.4375 C 232.8125 126.371094 234.171875 127.386719 234.425781 127.726562 Z M 170.476562 126.199219 C 170.007812 126.921875 159.648438 131.964844 152.515625 134.929688 C 141.8125 139.382812 125.425781 145.101562 124.363281 144.765625 C 123.726562 144.550781 127.546875 139.464844 128.523438 139.210938 C 128.949219 139.085938 133.40625 137.8125 138.417969 136.371094 C 147.207031 133.871094 165.890625 127.8125 168.992188 126.453125 C 170.816406 125.648438 170.816406 125.648438 170.476562 126.199219 Z M 238.332031 128.066406 C 239.4375 128.914062 240.328125 129.929688 240.328125 130.269531 C 240.328125 130.777344 240.113281 130.777344 239.179688 130.058594 C 237.183594 128.660156 235.230469 126.707031 235.230469 126.15625 C 235.230469 125.605469 235.273438 125.648438 238.332031 128.066406 Z M 242.238281 128.277344 C 244.53125 131.117188 244.699219 132.386719 242.492188 130.183594 C 240.835938 128.53125 239.605469 126.15625 240.792969 126.878906 C 241.132812 127.046875 241.769531 127.683594 242.238281 128.277344 Z M 137.144531 128.066406 C 137.144531 128.488281 132.558594 132.050781 131.625 132.304688 C 130.730469 132.558594 130.902344 132.304688 132.472656 130.863281 C 133.535156 129.886719 134.976562 128.828125 135.65625 128.53125 C 137.101562 127.851562 137.144531 127.851562 137.144531 128.066406 Z M 168.566406 128.914062 C 168.566406 129.167969 161.8125 133.40625 156.507812 136.457031 C 151.027344 139.59375 143.089844 143.535156 135.871094 146.671875 C 131.070312 148.746094 119.691406 152.984375 119.480469 152.773438 C 119.394531 152.730469 120.117188 151.289062 121.007812 149.636719 L 122.707031 146.628906 L 128.949219 144.636719 C 141.390625 140.695312 153.238281 136.074219 163.046875 131.371094 C 168.992188 128.488281 168.566406 128.699219 168.566406 128.914062 Z M 239.945312 132.429688 C 241.390625 134 241.644531 134.929688 246.230469 153.070312 C 248.863281 163.496094 250.902344 172.144531 250.773438 172.269531 C 250.347656 172.695312 249.203125 170.320312 247.417969 165.191406 C 244.105469 155.910156 240.835938 145.695312 238.628906 137.855469 C 237.441406 133.660156 236.421875 129.972656 236.292969 129.675781 C 235.996094 128.828125 238.246094 130.566406 239.945312 132.429688 Z M 130.136719 131.667969 C 129.203125 132.558594 127.972656 133.449219 127.378906 133.617188 L 126.316406 133.914062 L 127.378906 132.769531 C 128.523438 131.539062 130.6875 130.015625 131.410156 130.015625 C 131.625 130.015625 131.070312 130.777344 130.136719 131.667969 Z M 245.804688 136.03125 C 246.058594 136.667969 246.144531 137.21875 246.101562 137.21875 C 245.636719 137.21875 242.109375 132.601562 241.855469 131.710938 C 241.601562 130.863281 241.941406 131.074219 243.46875 132.726562 C 244.53125 133.871094 245.59375 135.355469 245.804688 136.03125 Z M 124.40625 134.082031 C 124.066406 134.421875 123.429688 134.929688 122.960938 135.144531 C 122.410156 135.398438 122.535156 135.144531 123.34375 134.507812 C 124.785156 133.277344 125.167969 133.109375 124.40625 134.082031 Z M 163.046875 134.378906 C 158.503906 138.535156 145.167969 147.179688 135.019531 152.605469 C 131.410156 154.511719 117.1875 160.953125 116.550781 160.953125 C 116.335938 160.953125 117.058594 158.199219 117.867188 155.996094 C 118.460938 154.425781 118.757812 154.128906 120.710938 153.496094 C 132.980469 149.511719 147.121094 143.109375 158.585938 136.414062 C 161.390625 134.804688 163.765625 133.449219 163.894531 133.449219 C 164.023438 133.40625 163.640625 133.828125 163.046875 134.378906 Z M 130.390625 134.550781 C 129.671875 135.820312 126.613281 138.914062 126.0625 138.914062 C 125.507812 138.914062 125.550781 138.871094 127.972656 135.820312 C 128.820312 134.71875 129.839844 133.828125 130.179688 133.828125 C 130.648438 133.828125 130.6875 134 130.390625 134.550781 Z M 125.464844 137.175781 C 124.449219 138.535156 123.132812 139.761719 122.621094 139.890625 C 122.113281 140.058594 121.644531 140.101562 121.601562 140.058594 C 121.558594 140.015625 122.15625 139.042969 122.917969 137.855469 C 124.191406 136.03125 125 135.398438 127.25 134.71875 C 127.335938 134.675781 126.527344 135.777344 125.464844 137.175781 Z M 246.867188 140.441406 C 247.757812 142.179688 249.710938 150.824219 252.046875 162.859375 C 254.210938 174.21875 254.210938 174.304688 253.109375 173.582031 C 252.640625 173.328125 252.21875 172.695312 252.089844 172.226562 C 251.960938 171.71875 249.882812 163.328125 247.375 153.535156 C 244.914062 143.789062 242.875 135.652344 242.875 135.523438 C 242.875 135.058594 246.273438 139.210938 246.867188 140.441406 Z M 121.175781 138.660156 C 120.457031 139.933594 119.691406 140.695312 118.800781 140.992188 C 118.078125 141.246094 117.398438 141.457031 117.3125 141.457031 C 116.804688 141.457031 119.648438 137.898438 120.539062 137.429688 C 122.238281 136.5 122.324219 136.667969 121.175781 138.660156 Z M 160.457031 138.320312 C 154.085938 145.019531 139.777344 155.742188 129.289062 161.800781 C 125.722656 163.835938 116.253906 168.582031 115.742188 168.582031 C 115.402344 168.582031 115.53125 164.894531 115.871094 163.328125 C 116.082031 162.226562 116.589844 161.929688 120.371094 160.488281 C 125.425781 158.496094 137.867188 152.476562 141.984375 150.019531 C 143.554688 149.042969 144.957031 148.238281 145.085938 148.238281 C 145.382812 148.238281 158.84375 139.085938 160.285156 137.898438 C 162.113281 136.371094 162.152344 136.542969 160.457031 138.320312 Z M 248.945312 139.636719 C 249.964844 141.289062 250.601562 142.730469 250.347656 142.730469 C 250.09375 142.730469 247.546875 138.789062 247.546875 138.40625 C 247.546875 137.726562 247.96875 138.109375 248.945312 139.636719 Z M 116.464844 140.652344 C 115.65625 142.050781 114.339844 142.984375 113.875 142.515625 C 113.621094 142.261719 116.589844 139.339844 117.058594 139.339844 C 117.144531 139.339844 116.890625 139.933594 116.464844 140.652344 Z M 124.066406 142.6875 C 122.960938 144.296875 122.027344 145.527344 121.941406 145.484375 C 121.644531 145.230469 124.53125 140.566406 125.167969 140.1875 C 125.59375 139.972656 125.933594 139.761719 125.976562 139.761719 C 126.019531 139.761719 125.167969 141.078125 124.066406 142.6875 Z M 160.074219 140.355469 C 160.074219 140.441406 159.734375 140.78125 159.351562 141.078125 C 158.671875 141.628906 158.628906 141.585938 159.179688 140.90625 C 159.734375 140.230469 160.074219 140.015625 160.074219 140.355469 Z M 121.644531 143.578125 C 120.796875 145.230469 119.863281 146.542969 119.523438 146.542969 C 118.714844 146.542969 118.714844 146.628906 119.777344 143.832031 C 120.625 141.667969 121.050781 141.246094 123.046875 140.652344 C 123.089844 140.609375 122.453125 141.925781 121.644531 143.578125 Z M 118.332031 144.636719 C 117.566406 146.628906 117.144531 147.179688 116.210938 147.433594 C 114.851562 147.816406 114.851562 147.859375 115.785156 145.019531 C 116.335938 143.195312 116.675781 142.773438 117.78125 142.433594 C 118.503906 142.222656 119.140625 142.050781 119.183594 142.09375 C 119.265625 142.136719 118.882812 143.28125 118.332031 144.636719 Z M 156.292969 144.804688 C 149.882812 152.179688 137.527344 162.859375 128.4375 168.878906 C 122.875 172.566406 116.335938 176.382812 116.082031 176.125 C 115.996094 176.042969 115.828125 174.644531 115.65625 172.992188 L 115.402344 170.066406 L 121.898438 166.800781 C 133.917969 160.828125 145.464844 153.15625 154.554688 145.144531 C 156.550781 143.40625 158.246094 142.050781 158.332031 142.136719 C 158.417969 142.222656 157.484375 143.40625 156.292969 144.804688 Z M 250.6875 145.355469 C 252.640625 148.492188 254.59375 156.546875 256.207031 168.371094 C 257.355469 176.71875 257.355469 176.253906 255.953125 175.195312 C 255.402344 174.8125 254.808594 172.441406 253.703125 166.421875 C 252.257812 158.664062 249.414062 144.847656 249.03125 143.660156 C 248.648438 142.558594 249.328125 143.238281 250.6875 145.355469 Z M 114.894531 144.253906 C 114.765625 144.636719 114.511719 145.652344 114.382812 146.542969 C 114.128906 147.984375 113.960938 148.195312 112.472656 148.578125 C 111.539062 148.789062 110.816406 148.875 110.816406 148.789062 C 110.816406 147.347656 112.046875 145.019531 113.109375 144.382812 C 114.722656 143.40625 115.234375 143.363281 114.894531 144.253906 Z M 110.222656 146.796875 C 110.09375 147.179688 109.96875 147.898438 109.96875 148.449219 C 109.96875 149.214844 109.585938 149.554688 108.058594 150.0625 L 106.144531 150.738281 L 106.613281 149.808594 C 107.207031 148.621094 109.585938 146.121094 110.09375 146.121094 C 110.308594 146.121094 110.351562 146.417969 110.222656 146.796875 Z M 118.460938 150.824219 C 117.1875 154.046875 116.847656 153.917969 117.652344 150.441406 C 118.078125 148.746094 119.140625 147.09375 119.5625 147.519531 C 119.648438 147.601562 119.140625 149.085938 118.460938 150.824219 Z M 117.058594 148.789062 C 116.972656 149.085938 116.632812 150.402344 116.378906 151.714844 C 116.082031 153.15625 115.613281 154.214844 115.191406 154.34375 C 114.214844 154.722656 114.128906 154.511719 114.46875 151.628906 C 114.679688 149.511719 114.9375 148.960938 115.65625 148.664062 C 116.929688 148.15625 117.3125 148.15625 117.058594 148.789062 Z M 113.535156 152.136719 C 113.363281 153.621094 113.238281 154.851562 113.195312 154.894531 C 113.152344 154.9375 112.644531 155.0625 112.046875 155.230469 C 110.988281 155.488281 110.902344 155.402344 110.648438 153.578125 C 110.179688 150.527344 110.648438 149.722656 113.066406 149.554688 C 113.746094 149.511719 113.789062 149.765625 113.535156 152.136719 Z M 109.542969 152.011719 C 109.542969 152.6875 109.671875 153.792969 109.796875 154.511719 C 110.050781 155.742188 109.96875 155.824219 108.3125 156.335938 C 107.335938 156.632812 106.484375 156.757812 106.402344 156.671875 C 106.273438 156.589844 106.144531 155.527344 106.0625 154.382812 C 105.933594 152.351562 105.976562 152.222656 107.417969 151.546875 C 109.375 150.527344 109.542969 150.570312 109.542969 152.011719 Z M 257.101562 158.917969 C 258.289062 163.496094 259.308594 169.261719 259.773438 174.007812 L 260.113281 177.398438 L 259.136719 176.933594 C 258.585938 176.679688 258.160156 176.382812 258.160156 176.210938 C 258.160156 174.855469 256.207031 161.800781 255.402344 157.5625 C 254.808594 154.640625 254.339844 152.179688 254.339844 152.054688 C 254.425781 151.164062 256.25 155.785156 257.101562 158.917969 Z M 104.871094 153.410156 C 104.871094 153.707031 105 154.679688 105.125 155.527344 C 105.382812 156.96875 105.296875 157.140625 104.277344 157.5625 C 101.644531 158.539062 101.050781 158.582031 101.050781 157.605469 C 101.050781 156.335938 102.113281 154.34375 103.257812 153.578125 C 104.40625 152.773438 104.871094 152.730469 104.871094 153.410156 Z M 115.445312 157.480469 C 115.234375 158.835938 114.894531 160.402344 114.679688 160.996094 C 114.339844 161.800781 114.257812 161.335938 114.257812 158.75 C 114.214844 155.996094 114.339844 155.488281 114.976562 155.316406 C 115.359375 155.191406 115.699219 155.105469 115.742188 155.0625 C 115.742188 155.0625 115.613281 156.121094 115.445312 157.480469 Z M 113.363281 159.089844 C 113.363281 161.886719 113.28125 162.269531 112.644531 162.140625 C 111.707031 161.972656 110.5625 156.757812 111.410156 156.503906 C 111.667969 156.417969 112.175781 156.25 112.515625 156.164062 C 112.855469 156.039062 113.195312 155.910156 113.28125 155.910156 C 113.320312 155.867188 113.363281 157.308594 113.363281 159.089844 Z M 110.09375 157.691406 C 110.222656 158.03125 110.433594 159.34375 110.605469 160.613281 C 110.902344 162.820312 110.859375 162.988281 109.925781 163.199219 C 108.652344 163.539062 108.4375 163.328125 107.460938 160.402344 C 106.824219 158.582031 106.742188 157.902344 107.121094 157.773438 C 107.417969 157.691406 107.929688 157.519531 108.269531 157.4375 C 109.375 157.054688 109.882812 157.140625 110.09375 157.691406 Z M 106.613281 160.953125 C 107.082031 162.226562 107.335938 163.496094 107.25 163.707031 C 107.164062 163.964844 106.402344 164.386719 105.59375 164.640625 L 104.109375 165.105469 L 103.003906 162.902344 C 102.410156 161.714844 101.898438 160.488281 101.816406 160.148438 C 101.6875 159.554688 104.148438 158.410156 105.210938 158.539062 C 105.550781 158.582031 106.144531 159.683594 106.613281 160.953125 Z M 101.6875 162.648438 C 102.367188 164.046875 102.832031 165.277344 102.707031 165.363281 C 102.621094 165.445312 101.515625 165.785156 100.285156 166.167969 L 98.035156 166.800781 L 97.1875 165.105469 C 96.71875 164.21875 96.464844 163.117188 96.59375 162.691406 C 96.761719 162.054688 99.480469 160.148438 100.242188 160.105469 C 100.371094 160.105469 101.007812 161.25 101.6875 162.648438 Z M 113.746094 163.792969 C 113.703125 164.21875 113.578125 165.023438 113.363281 165.617188 L 113.066406 166.675781 L 112.726562 165.53125 C 112.386719 164.21875 112.683594 163.074219 113.363281 163.074219 C 113.578125 163.074219 113.789062 163.410156 113.746094 163.792969 Z M 112.003906 166.589844 C 112.601562 168.921875 112.515625 170.277344 111.75 170.277344 C 111.453125 170.277344 109.117188 165.191406 109.117188 164.597656 C 109.117188 164.34375 110.519531 164.003906 111.027344 164.089844 C 111.242188 164.175781 111.707031 165.277344 112.003906 166.589844 Z M 110.351562 170.871094 C 110.265625 170.957031 109.753906 171.125 109.289062 171.296875 C 108.523438 171.507812 108.097656 171.167969 106.824219 169.261719 C 104.617188 165.914062 104.617188 165.828125 106.441406 165.363281 L 108.058594 164.980469 L 109.289062 167.863281 C 109.925781 169.429688 110.433594 170.785156 110.351562 170.871094 Z M 259.734375 165.699219 C 259.605469 166.039062 259.476562 165.914062 259.476562 165.445312 C 259.433594 164.980469 259.5625 164.726562 259.691406 164.894531 C 259.816406 165.023438 259.859375 165.402344 259.734375 165.699219 Z M 105.425781 169.050781 C 106.273438 170.449219 106.996094 171.761719 106.996094 171.972656 C 106.996094 172.269531 105 172.949219 104.023438 173.03125 C 103.894531 173.03125 102.664062 171.804688 101.261719 170.277344 L 98.757812 167.566406 L 100.625 167.058594 C 103.597656 166.25 103.726562 166.335938 105.425781 169.050781 Z M 261.769531 174.261719 C 262.40625 178.035156 262.367188 178.882812 261.558594 178.078125 C 261.21875 177.738281 259.816406 168.074219 259.902344 166.675781 C 259.945312 165.828125 261.132812 170.574219 261.769531 174.261719 Z M 114.085938 168.242188 C 113.960938 168.582031 113.832031 168.457031 113.832031 167.988281 C 113.789062 167.523438 113.917969 167.269531 114.042969 167.4375 C 114.171875 167.566406 114.214844 167.945312 114.085938 168.242188 Z M 100.328125 170.914062 L 102.792969 173.625 L 100.582031 174.304688 C 99.351562 174.644531 98.035156 174.941406 97.652344 174.941406 C 97.269531 174.941406 95.871094 173.964844 94.511719 172.777344 C 92.472656 170.957031 92.175781 170.488281 92.644531 170.023438 C 93.238281 169.386719 96.210938 168.242188 97.230469 168.203125 C 97.570312 168.203125 98.96875 169.429688 100.328125 170.914062 Z M 113.320312 172.695312 C 113.320312 173.921875 113.238281 174.09375 112.980469 173.457031 C 112.683594 172.695312 112.8125 171.125 113.195312 171.125 C 113.28125 171.125 113.363281 171.847656 113.320312 172.695312 Z M 111.410156 172.609375 C 111.539062 172.949219 111.539062 173.839844 111.367188 174.515625 L 111.113281 175.832031 L 110.09375 174.261719 C 109.203125 173.03125 109.117188 172.652344 109.585938 172.355469 C 110.476562 171.804688 111.113281 171.886719 111.410156 172.609375 Z M 109.332031 175.023438 C 110.816406 177.269531 111.285156 179.179688 110.265625 179.179688 C 109.96875 179.179688 108.609375 178.035156 107.25 176.679688 L 104.746094 174.136719 L 106.1875 173.5 C 106.996094 173.160156 107.675781 172.863281 107.71875 172.863281 C 107.757812 172.820312 108.480469 173.839844 109.332031 175.023438 Z M 251.792969 174.558594 C 251.792969 174.8125 251.621094 174.855469 251.367188 174.726562 C 251.15625 174.601562 250.941406 174.261719 250.941406 174.050781 C 250.941406 173.796875 251.15625 173.753906 251.367188 173.878906 C 251.621094 174.007812 251.792969 174.347656 251.792969 174.558594 Z M 106.0625 177.144531 C 108.566406 179.730469 108.609375 179.8125 107.71875 180.324219 C 107.207031 180.621094 106.441406 180.832031 106.0625 180.875 C 105.382812 180.875 98.757812 176.253906 99.054688 175.957031 C 99.308594 175.703125 102.496094 174.558594 103.046875 174.558594 C 103.300781 174.515625 104.660156 175.703125 106.0625 177.144531 Z M 254.46875 176.253906 C 254.636719 176.890625 254.550781 176.933594 253.914062 176.507812 C 253.492188 176.253906 253.023438 175.703125 252.9375 175.320312 C 252.769531 174.6875 252.855469 174.644531 253.492188 175.066406 C 253.914062 175.320312 254.382812 175.871094 254.46875 176.253906 Z M 112.941406 176.679688 C 112.941406 177.441406 112.769531 177.863281 112.515625 177.695312 C 112.304688 177.566406 112.089844 176.847656 112.089844 176.167969 C 112.089844 175.40625 112.261719 174.984375 112.515625 175.152344 C 112.769531 175.277344 112.941406 176 112.941406 176.679688 Z M 100.539062 178.585938 C 102.324219 179.941406 103.980469 181.128906 104.148438 181.296875 C 104.363281 181.507812 103.472656 182.019531 102.15625 182.527344 L 99.820312 183.375 L 94.46875 181 C 91.539062 179.6875 89.289062 178.5 89.414062 178.375 C 89.542969 178.246094 91.285156 177.695312 93.324219 177.230469 C 95.359375 176.71875 97.058594 176.296875 97.144531 176.253906 C 97.1875 176.253906 98.714844 177.269531 100.539062 178.585938 Z M 257.3125 177.90625 C 257.3125 178.375 257.140625 178.753906 256.972656 178.753906 C 256.378906 178.753906 255.613281 177.738281 255.613281 176.972656 C 255.613281 176.296875 255.742188 176.253906 256.464844 176.636719 C 256.929688 176.890625 257.3125 177.484375 257.3125 177.90625 Z M 260.285156 179.6875 C 260.285156 181.679688 258.925781 180.957031 258.375 178.628906 C 258.078125 177.484375 258.078125 177.484375 259.179688 177.949219 C 259.988281 178.332031 260.285156 178.796875 260.285156 179.6875 Z M 255.1875 179.476562 C 255.1875 180.027344 255.0625 180.027344 254.550781 179.601562 C 254.210938 179.304688 253.914062 178.796875 253.914062 178.457031 C 253.914062 177.90625 254.042969 177.90625 254.550781 178.332031 C 254.890625 178.628906 255.1875 179.136719 255.1875 179.476562 Z M 114.636719 180.238281 C 114.636719 180.957031 114.554688 180.957031 114.214844 180.449219 C 114 180.109375 113.789062 179.433594 113.789062 178.964844 C 113.789062 178.246094 113.875 178.246094 114.214844 178.753906 C 114.425781 179.09375 114.636719 179.773438 114.636719 180.238281 Z M 262.535156 181 C 262.789062 182.652344 262.621094 182.867188 261.769531 182.144531 C 260.921875 181.46875 260.878906 179.09375 261.726562 179.433594 C 262.066406 179.558594 262.40625 180.28125 262.535156 181 Z M 112.683594 180.28125 C 112.8125 180.660156 112.941406 181.339844 112.941406 181.804688 C 112.941406 182.527344 112.8125 182.570312 112.304688 182.144531 C 111.625 181.59375 111.410156 179.601562 112.046875 179.601562 C 112.261719 179.601562 112.558594 179.898438 112.683594 180.28125 Z M 257.738281 181.46875 C 257.738281 182.230469 257.695312 182.273438 256.886719 181.507812 C 256.421875 181.085938 256.039062 180.492188 256.039062 180.152344 C 256.039062 179.6875 256.207031 179.6875 256.886719 180.109375 C 257.355469 180.40625 257.738281 181 257.738281 181.46875 Z M 279.011719 185.707031 L 284.359375 187.0625 L 281.132812 187.78125 C 279.351562 188.164062 277.140625 188.714844 276.164062 188.96875 C 274.46875 189.476562 274.339844 189.433594 269.921875 186.976562 C 264.191406 183.839844 263.851562 183.542969 263.554688 181.679688 L 263.34375 180.195312 L 268.480469 182.273438 C 271.324219 183.417969 276.082031 184.984375 279.011719 185.707031 Z M 110.222656 181.890625 C 110.351562 182.441406 110.390625 183.289062 110.308594 183.796875 C 110.179688 184.644531 110.050781 184.601562 108.355469 183.246094 L 106.570312 181.804688 L 107.71875 181.382812 C 109.542969 180.703125 109.925781 180.789062 110.222656 181.890625 Z M 255.613281 182.1875 C 255.613281 182.441406 255.445312 182.484375 255.1875 182.355469 C 254.976562 182.230469 254.765625 181.890625 254.765625 181.679688 C 254.765625 181.425781 254.976562 181.382812 255.1875 181.507812 C 255.445312 181.636719 255.613281 181.976562 255.613281 182.1875 Z M 260.285156 183.585938 C 260.285156 184.773438 260.285156 184.816406 259.433594 184.050781 C 258.96875 183.628906 258.585938 182.824219 258.585938 182.273438 C 258.585938 181.382812 258.671875 181.339844 259.433594 181.804688 C 259.988281 182.144531 260.285156 182.824219 260.285156 183.585938 Z M 115.0625 184.433594 C 115.0625 185.070312 114.9375 185.113281 114.425781 184.6875 C 114.085938 184.390625 113.789062 183.671875 113.789062 183.078125 C 113.789062 182.019531 113.832031 182.019531 114.425781 182.824219 C 114.765625 183.246094 115.0625 183.96875 115.0625 184.433594 Z M 108.058594 184.347656 C 110.09375 185.960938 110.351562 186.339844 110.351562 187.78125 L 110.390625 189.390625 L 108.609375 188.332031 C 107.589844 187.78125 105.464844 186.554688 103.851562 185.621094 L 100.964844 183.925781 L 102.792969 183.289062 C 105.425781 182.355469 105.507812 182.355469 108.058594 184.347656 Z M 112.941406 185.621094 C 112.941406 186.722656 112.855469 186.765625 112.089844 186.296875 C 111.496094 185.917969 111.242188 185.28125 111.242188 184.308594 C 111.242188 182.90625 111.242188 182.867188 112.089844 183.628906 C 112.558594 184.050781 112.941406 184.941406 112.941406 185.621094 Z M 262.832031 185.410156 C 262.832031 186.722656 262.746094 186.765625 261.984375 186.296875 C 261.429688 185.917969 261.132812 185.28125 261.132812 184.390625 C 261.132812 183.078125 261.21875 183.035156 261.984375 183.5 C 262.535156 183.882812 262.832031 184.519531 262.832031 185.410156 Z M 258.160156 184.984375 C 258.160156 185.535156 258.035156 185.535156 257.523438 185.113281 C 257.183594 184.816406 256.886719 184.308594 256.886719 183.96875 C 256.886719 183.417969 257.015625 183.417969 257.523438 183.839844 C 257.863281 184.136719 258.160156 184.644531 258.160156 184.984375 Z M 104.871094 187.441406 C 107.546875 188.96875 109.839844 190.324219 110.011719 190.535156 C 110.136719 190.707031 110.390625 191.511719 110.519531 192.359375 L 110.730469 193.84375 L 105.296875 191.679688 C 102.324219 190.453125 97.609375 188.925781 94.808594 188.25 L 89.796875 187.019531 L 94.257812 185.917969 C 96.71875 185.28125 99.011719 184.773438 99.394531 184.730469 C 99.734375 184.6875 102.195312 185.917969 104.871094 187.441406 Z M 270.179688 188.375 L 273.023438 189.945312 L 271.238281 190.707031 C 268.648438 191.722656 268.351562 191.679688 265.890625 189.519531 C 264.019531 187.867188 263.683594 187.359375 263.683594 186.128906 L 263.683594 184.644531 L 265.507812 185.746094 C 266.484375 186.339844 268.566406 187.527344 270.179688 188.375 Z M 260.285156 187.105469 C 260.285156 188.035156 260.199219 188.121094 259.648438 187.65625 C 259.308594 187.359375 259.011719 186.636719 259.011719 186.085938 C 259.011719 185.15625 259.097656 185.070312 259.648438 185.535156 C 259.988281 185.832031 260.285156 186.554688 260.285156 187.105469 Z M 116.761719 186.933594 C 116.761719 187.144531 116.589844 187.144531 116.335938 187.019531 C 116.125 186.890625 115.914062 186.425781 115.914062 186.042969 C 115.914062 185.410156 115.996094 185.410156 116.335938 185.960938 C 116.550781 186.296875 116.761719 186.765625 116.761719 186.933594 Z M 115.0625 187.738281 C 115.0625 189.011719 114 188.375 113.875 187.019531 C 113.746094 185.960938 113.789062 185.875 114.382812 186.339844 C 114.765625 186.679688 115.0625 187.273438 115.0625 187.738281 Z M 258.160156 187.992188 C 258.160156 188.628906 258.078125 188.628906 257.738281 188.078125 C 257.183594 187.230469 257.183594 186.679688 257.738281 187.019531 C 257.992188 187.144531 258.160156 187.613281 258.160156 187.992188 Z M 112.941406 189.859375 C 112.941406 190.960938 112.855469 191.003906 112.089844 190.535156 C 111.496094 190.15625 111.242188 189.519531 111.242188 188.542969 C 111.242188 187.144531 111.242188 187.105469 112.089844 187.867188 C 112.558594 188.289062 112.941406 189.179688 112.941406 189.859375 Z M 262.152344 187.910156 C 262.578125 188.078125 262.832031 188.671875 262.832031 189.6875 C 262.832031 191.128906 262.832031 191.171875 261.984375 190.410156 C 261.515625 189.984375 261.132812 189.179688 261.132812 188.628906 C 261.132812 187.570312 261.175781 187.527344 262.152344 187.910156 Z M 117.3125 190.324219 C 117.566406 191.257812 117.566406 191.257812 116.71875 190.238281 C 115.785156 189.097656 115.613281 188.164062 116.507812 188.882812 C 116.847656 189.136719 117.1875 189.816406 117.3125 190.324219 Z M 260.285156 190.960938 C 260.285156 192.019531 260.242188 192.019531 259.648438 191.214844 C 259.308594 190.792969 259.011719 190.070312 259.011719 189.605469 C 259.011719 188.96875 259.136719 188.925781 259.648438 189.351562 C 259.988281 189.648438 260.285156 190.367188 260.285156 190.960938 Z M 115.488281 191.765625 C 115.488281 192.65625 115.402344 192.699219 114.636719 192.230469 C 114.085938 191.894531 113.789062 191.214844 113.789062 190.453125 C 113.789062 189.265625 113.789062 189.222656 114.636719 189.984375 C 115.105469 190.410156 115.488281 191.214844 115.488281 191.765625 Z M 266.3125 191.300781 L 267.460938 192.230469 L 266.1875 192.699219 C 264.320312 193.335938 263.683594 192.910156 263.683594 190.960938 C 263.683594 189.097656 263.511719 189.054688 266.3125 191.300781 Z M 279.945312 193.164062 C 282.703125 194.394531 284.828125 195.496094 284.699219 195.664062 C 284.53125 195.792969 282.746094 196.34375 280.75 196.851562 L 277.058594 197.742188 L 274.765625 196.214844 C 273.53125 195.367188 271.835938 194.183594 271.027344 193.546875 L 269.582031 192.402344 L 271.835938 191.511719 C 273.066406 191.046875 274.296875 190.75 274.507812 190.832031 C 274.765625 190.917969 277.183594 191.976562 279.945312 193.164062 Z M 112.429688 191.976562 C 113.066406 192.613281 113.109375 194.859375 112.515625 194.859375 C 112.046875 194.859375 111.921875 194.5625 111.496094 192.613281 C 111.199219 191.382812 111.582031 191.128906 112.429688 191.976562 Z M 119.308594 192.359375 C 119.308594 192.613281 119.140625 192.65625 118.882812 192.527344 C 118.671875 192.402344 118.460938 192.0625 118.460938 191.851562 C 118.460938 191.597656 118.671875 191.554688 118.882812 191.679688 C 119.140625 191.808594 119.308594 192.148438 119.308594 192.359375 Z M 262.40625 193.460938 C 262.40625 195.03125 261.390625 194.394531 261.21875 192.742188 C 261.089844 191.46875 261.132812 191.382812 261.726562 191.851562 C 262.109375 192.191406 262.40625 192.910156 262.40625 193.460938 Z M 117.355469 192.570312 C 117.738281 192.910156 118.035156 193.503906 118.035156 193.84375 C 118.035156 194.351562 117.90625 194.351562 117.1875 193.925781 C 116.71875 193.628906 116.335938 193.039062 116.335938 192.65625 C 116.335938 191.722656 116.507812 191.722656 117.355469 192.570312 Z M 115.402344 194.605469 C 116.125 196.003906 115.871094 196.34375 114.679688 195.707031 C 114.128906 195.453125 113.789062 194.816406 113.789062 194.183594 C 113.789062 192.78125 114.636719 193.039062 115.402344 194.605469 Z M 260.285156 194.773438 C 260.285156 195.070312 260.113281 195.199219 259.859375 195.070312 C 259.648438 194.945312 259.433594 194.394531 259.433594 193.886719 C 259.433594 193.121094 259.519531 193.078125 259.859375 193.589844 C 260.074219 193.925781 260.285156 194.476562 260.285156 194.773438 Z M 271.960938 195.539062 C 273.703125 196.851562 275.148438 197.996094 275.148438 198.082031 C 275.148438 198.164062 274.085938 198.546875 272.8125 198.929688 L 270.433594 199.605469 L 267.96875 196.894531 C 265.550781 194.308594 265.507812 194.222656 266.398438 193.714844 C 267.929688 192.824219 268.691406 193.078125 271.960938 195.539062 Z M 120.160156 195.664062 C 120.117188 196.214844 120.03125 196.214844 119.523438 195.539062 C 118.714844 194.4375 118.714844 193.757812 119.523438 194.4375 C 119.863281 194.734375 120.160156 195.285156 120.160156 195.664062 Z M 268.863281 200.03125 C 268.691406 200.199219 267.96875 200.453125 267.25 200.625 C 266.058594 200.835938 265.847656 200.707031 264.617188 198.800781 C 263.214844 196.640625 262.875 195.070312 263.722656 194.773438 C 264.320312 194.5625 269.246094 199.648438 268.863281 200.03125 Z M 118.460938 197.0625 C 118.460938 197.742188 118.332031 197.742188 117.609375 197.316406 C 117.144531 197.019531 116.761719 196.300781 116.761719 195.75 C 116.761719 194.773438 116.804688 194.734375 117.609375 195.496094 C 118.078125 195.917969 118.460938 196.597656 118.460938 197.0625 Z M 112.726562 196.089844 C 113.023438 196.597656 114.296875 207.234375 114.042969 207.449219 C 113.917969 207.574219 112.472656 200.792969 111.878906 197.277344 C 111.667969 195.835938 112.132812 195.15625 112.726562 196.089844 Z M 261.984375 197.953125 C 261.984375 198.972656 261.855469 199.140625 261.558594 198.675781 C 261.007812 197.828125 261.007812 196.003906 261.558594 196.34375 C 261.8125 196.46875 261.984375 197.234375 261.984375 197.953125 Z M 115.914062 197.828125 C 115.914062 199.183594 117.867188 212.238281 118.671875 216.433594 C 119.265625 219.355469 119.648438 221.773438 119.5625 221.859375 C 119.480469 221.941406 119.011719 221.050781 118.503906 219.90625 C 117.3125 217.066406 115.699219 210.160156 114.894531 204.183594 C 113.703125 195.664062 113.703125 196.511719 114.894531 197.0625 C 115.445312 197.316406 115.914062 197.65625 115.914062 197.828125 Z M 121.007812 198.460938 C 121.007812 199.308594 119.863281 198.800781 119.605469 197.785156 C 119.4375 197.105469 119.523438 197.0625 120.199219 197.445312 C 120.625 197.65625 121.007812 198.125 121.007812 198.460938 Z M 259.734375 198.335938 C 259.605469 198.675781 259.476562 198.546875 259.476562 198.082031 C 259.433594 197.613281 259.5625 197.359375 259.691406 197.53125 C 259.816406 197.65625 259.859375 198.039062 259.734375 198.335938 Z M 258.332031 199.777344 C 258.882812 204.058594 259.054688 203.800781 254.042969 206.261719 C 240.792969 212.703125 226.1875 222.492188 216.804688 231.265625 C 212.683594 235.125 215.445312 231.691406 221.644531 225.25 C 226.441406 220.289062 235.316406 212.449219 240.328125 208.804688 C 245.464844 205.03125 256.929688 197.828125 257.78125 197.828125 C 257.949219 197.828125 258.160156 198.714844 258.332031 199.777344 Z M 119.734375 204.140625 C 121.347656 213.042969 123.171875 222.113281 124.234375 226.5625 C 124.785156 228.976562 125.253906 231.054688 125.253906 231.183594 C 125.253906 231.351562 124.488281 230.335938 123.597656 228.933594 C 122.367188 227.070312 121.644531 225.332031 120.878906 221.984375 C 119.605469 216.730469 118.207031 208.886719 117.441406 202.742188 L 116.929688 198.335938 L 117.867188 198.757812 C 118.671875 199.140625 118.925781 199.902344 119.734375 204.140625 Z M 264.488281 201.683594 C 263.003906 202.617188 262.238281 201.683594 262.703125 199.523438 L 262.960938 198.207031 L 263.980469 199.777344 C 264.871094 201.003906 264.957031 201.386719 264.488281 201.683594 Z M 123.386719 200.242188 C 123.089844 200.539062 122.28125 199.945312 122.28125 199.4375 C 122.28125 199.183594 122.535156 199.183594 122.917969 199.523438 C 123.300781 199.820312 123.46875 200.15625 123.386719 200.242188 Z M 279.519531 201.257812 C 281.429688 202.953125 281.855469 203.546875 281.515625 204.015625 C 280.964844 204.609375 277.058594 206.050781 276.464844 205.792969 C 276.292969 205.710938 275.019531 204.480469 273.703125 203.039062 L 271.28125 200.410156 L 273.320312 199.777344 C 276.464844 198.84375 276.929688 198.929688 279.519531 201.257812 Z M 122.15625 202.574219 C 122.410156 203.589844 124.53125 212.023438 126.910156 221.347656 C 129.289062 230.671875 131.199219 238.386719 131.199219 238.472656 C 131.199219 238.769531 127.589844 234.574219 127.078125 233.683594 C 126.1875 232.03125 120.160156 203.210938 120.160156 200.582031 C 120.160156 199.226562 121.6875 200.707031 122.15625 202.574219 Z M 261.175781 202.148438 C 260.792969 202.996094 260.75 202.914062 260.75 201.429688 C 260.75 200.117188 260.835938 199.902344 261.132812 200.453125 C 261.390625 200.878906 261.429688 201.515625 261.175781 202.148438 Z M 273.449219 206.980469 C 272.386719 207.320312 271.238281 207.574219 270.898438 207.53125 C 270.304688 207.53125 267.078125 202.914062 267.078125 202.105469 C 267.078125 201.9375 267.714844 201.554688 268.480469 201.34375 C 269.796875 200.921875 269.921875 201.003906 272.597656 203.675781 L 275.359375 206.429688 Z M 126.359375 208 C 129.246094 215.882812 131.75 223.636719 134.851562 234.277344 C 136.378906 239.53125 137.695312 244.066406 137.824219 244.363281 C 138.035156 245.125 133.832031 241.609375 133.109375 240.464844 C 132.640625 239.699219 123.132812 202.953125 123.132812 201.851562 C 123.132812 200.539062 124.660156 203.464844 126.359375 208 Z M 267.332031 204.90625 C 269.457031 208.253906 269.457031 208.253906 267.628906 208.71875 L 266.015625 209.101562 L 264.871094 206.386719 C 264.191406 204.90625 263.683594 203.507812 263.683594 203.335938 C 263.683594 203.039062 264.402344 202.699219 265.464844 202.53125 C 265.636719 202.53125 266.484375 203.589844 267.332031 204.90625 Z M 129.203125 209.058594 C 132.175781 215.035156 136.125 224.144531 138.628906 230.886719 C 140.285156 235.292969 145.210938 249.828125 145.210938 250.296875 C 145.210938 250.507812 140.921875 247.457031 140.03125 246.609375 C 139.5625 246.183594 138.035156 241.691406 136.292969 235.589844 C 133.40625 225.542969 128.820312 211.390625 126.699219 205.878906 C 125.167969 201.894531 126.441406 203.507812 129.203125 209.058594 Z M 263.808594 206.558594 C 264.488281 208.082031 264.957031 209.441406 264.871094 209.523438 C 264.742188 209.609375 264.234375 209.734375 263.683594 209.777344 C 262.789062 209.90625 262.621094 209.652344 262.066406 207.488281 C 261.472656 205.160156 261.558594 203.761719 262.28125 203.761719 C 262.449219 203.761719 263.171875 205.03125 263.808594 206.558594 Z M 133.492188 212.660156 C 140.03125 223.636719 143.9375 231.308594 147.84375 241.058594 C 150.308594 247.160156 152.898438 254.28125 152.726562 254.449219 C 152.683594 254.535156 151.242188 253.8125 149.585938 252.925781 L 146.527344 251.230469 L 144.363281 244.363281 C 140.457031 232.03125 134.976562 218.210938 129.839844 207.785156 C 128.054688 204.097656 129.671875 206.261719 133.492188 212.660156 Z M 258.542969 207.449219 C 258.417969 211.644531 258.375 211.6875 253.703125 213.550781 C 247.757812 215.882812 235.148438 222.195312 229.074219 225.800781 C 223.980469 228.851562 215.359375 234.699219 212.9375 236.734375 C 212.257812 237.328125 213.320312 236.183594 215.316406 234.234375 C 222.621094 226.984375 235.105469 217.746094 245.636719 211.769531 C 250.050781 209.269531 257.566406 205.539062 258.289062 205.457031 C 258.457031 205.457031 258.542969 206.34375 258.542969 207.449219 Z M 260.15625 206.386719 C 260.03125 206.726562 259.902344 206.601562 259.902344 206.132812 C 259.859375 205.667969 259.988281 205.414062 260.113281 205.582031 C 260.242188 205.710938 260.285156 206.089844 260.15625 206.386719 Z M 277.523438 210.03125 C 277.695312 210.667969 277.523438 211.304688 277.015625 211.855469 C 276.207031 212.746094 273.914062 214.101562 273.660156 213.847656 C 273.320312 213.464844 271.324219 209.226562 271.324219 208.929688 C 271.324219 208.71875 272.34375 208.253906 273.574219 207.914062 C 275.699219 207.320312 275.824219 207.320312 276.546875 208.167969 C 276.929688 208.675781 277.398438 209.480469 277.523438 210.03125 Z M 261.515625 209.183594 C 261.8125 210.203125 261.769531 210.542969 261.261719 210.753906 C 260.328125 211.09375 260.199219 210.839844 260.539062 209.101562 C 260.835938 207.320312 261.007812 207.363281 261.515625 209.183594 Z M 114.511719 208.929688 C 114.382812 209.269531 114.257812 209.144531 114.257812 208.675781 C 114.214844 208.210938 114.339844 207.957031 114.46875 208.125 C 114.597656 208.253906 114.636719 208.632812 114.511719 208.929688 Z M 137.609375 215.289062 C 146.613281 227.113281 155.65625 243.386719 160.285156 255.933594 L 160.835938 257.5 L 159.308594 257.121094 C 158.460938 256.867188 156.929688 256.398438 155.953125 256.058594 C 154.257812 255.425781 154.128906 255.296875 153.023438 251.949219 C 148.820312 239.148438 142.070312 224.867188 133.066406 209.777344 C 132.386719 208.632812 132.386719 208.632812 133.152344 209.566406 C 133.621094 210.074219 135.613281 212.617188 137.609375 215.289062 Z M 271.960938 212.789062 C 272.597656 214.355469 272.597656 214.355469 271.453125 214.820312 C 268.820312 215.839844 268.394531 215.628906 267.460938 212.914062 C 266.992188 211.558594 266.738281 210.328125 266.867188 210.160156 C 267.035156 210.03125 267.757812 209.695312 268.480469 209.441406 C 269.710938 209.015625 269.882812 209.058594 270.5625 210.074219 C 270.941406 210.710938 271.578125 211.898438 271.960938 212.789062 Z M 266.527344 213.421875 L 267.460938 216.007812 L 265.976562 216.476562 C 265.125 216.773438 264.359375 216.898438 264.234375 216.773438 C 264.105469 216.644531 263.765625 215.289062 263.511719 213.761719 C 263.003906 211.09375 263.003906 211.007812 263.851562 210.839844 C 265.378906 210.542969 265.550781 210.753906 266.527344 213.421875 Z M 262.664062 214.566406 C 262.960938 215.964844 263.085938 217.238281 263.003906 217.363281 C 262.917969 217.535156 262.367188 217.746094 261.769531 217.832031 C 260.710938 218.042969 260.710938 218.042969 260.710938 214.90625 C 260.710938 212.152344 260.792969 211.769531 261.429688 211.898438 C 261.941406 211.984375 262.324219 212.789062 262.664062 214.566406 Z M 147.078125 223.46875 C 151.878906 229.359375 156.507812 235.886719 160.371094 242.328125 C 162.578125 245.972656 168.566406 257.542969 168.566406 258.09375 C 168.566406 258.476562 165.082031 258.433594 163.34375 258.050781 C 162.238281 257.839844 161.941406 257.332031 160.457031 253.558594 C 158.757812 249.238281 152.261719 235.929688 149.882812 231.773438 C 147.503906 227.664062 141.773438 218.847656 139.183594 215.414062 L 136.675781 212.023438 L 140.160156 215.628906 C 142.070312 217.621094 145.167969 221.136719 147.078125 223.46875 Z M 259.859375 215.375 C 259.859375 218.042969 259.734375 218.507812 259.097656 218.679688 C 258.375 218.890625 258.332031 218.722656 258.671875 216.515625 C 259.433594 211.261719 259.859375 210.839844 259.859375 215.375 Z M 257.269531 214.652344 C 256.082031 219.316406 255.824219 219.652344 252.726562 220.671875 C 241.175781 224.570312 223.894531 232.453125 214.339844 238.21875 C 211.792969 239.742188 209.753906 240.84375 209.753906 240.675781 C 209.796875 240.125 223.386719 230.335938 226.738281 228.425781 C 227.546875 228.003906 229.839844 226.648438 231.792969 225.417969 C 237.566406 221.941406 254.253906 213.933594 257.609375 213.085938 C 257.652344 213.085938 257.480469 213.804688 257.269531 214.652344 Z M 147.460938 220.375 C 154.382812 226.859375 162.664062 236.394531 167.972656 244.023438 C 171.242188 248.726562 176.421875 257.542969 176.082031 257.839844 C 175.996094 257.925781 174.59375 258.09375 172.980469 258.265625 L 170.050781 258.519531 L 167.121094 252.667969 C 160.964844 240.125 151.664062 226.351562 143.300781 217.363281 C 140.074219 213.890625 142.113281 215.375 147.460938 220.375 Z M 273.023438 216.476562 C 273.023438 217.789062 271.917969 219.652344 270.6875 220.457031 C 270.050781 220.882812 269.457031 221.136719 269.371094 221.050781 C 269.285156 220.925781 269.160156 219.949219 269.117188 218.804688 C 268.988281 216.855469 269.03125 216.773438 270.476562 216.21875 C 272.597656 215.457031 273.023438 215.5 273.023438 216.476562 Z M 268.097656 219.273438 C 268.226562 220.332031 268.226562 221.433594 268.097656 221.644531 C 267.800781 222.070312 264.957031 223.382812 264.742188 223.171875 C 264.699219 223.085938 264.53125 221.941406 264.359375 220.628906 C 264.105469 218.296875 264.148438 218.210938 265.296875 217.832031 C 267.460938 217.027344 267.800781 217.195312 268.097656 219.273438 Z M 263.425781 220.5 C 263.851562 223.128906 263.511719 223.890625 261.726562 224.441406 L 260.199219 224.910156 L 260.453125 223.339844 C 260.582031 222.492188 260.710938 221.179688 260.710938 220.417969 C 260.710938 219.144531 261.089844 218.804688 262.664062 218.636719 C 262.960938 218.636719 263.300781 219.441406 263.425781 220.5 Z M 259.691406 221.390625 C 259.5625 222.492188 259.433594 223.722656 259.433594 224.1875 C 259.433594 224.867188 257.480469 226.097656 257.058594 225.714844 C 256.804688 225.417969 258.289062 220.078125 258.714844 219.78125 C 259.734375 219.101562 259.988281 219.484375 259.691406 221.390625 Z M 256.464844 223.257812 C 256.082031 225.035156 255.65625 225.96875 255.0625 226.308594 C 254.339844 226.6875 254.253906 226.648438 254.550781 225.96875 C 254.722656 225.503906 255.273438 224.0625 255.785156 222.746094 C 256.25 221.433594 256.71875 220.417969 256.84375 220.5 C 256.929688 220.628906 256.761719 221.859375 256.464844 223.257812 Z M 253.152344 224.1875 L 251.453125 227.28125 L 240.710938 230.925781 C 227.929688 235.207031 222.195312 237.453125 212.515625 241.988281 C 208.566406 243.8125 205.507812 245.125 205.71875 244.914062 C 206.355469 244.320312 212.429688 240.546875 217.183594 237.792969 C 222.449219 234.785156 233.363281 229.359375 238.417969 227.238281 C 242.789062 225.417969 253.957031 221.179688 254.46875 221.179688 C 254.679688 221.136719 254.085938 222.535156 253.152344 224.1875 Z M 267.332031 224.402344 C 266.695312 225.671875 264.234375 228.171875 263.980469 227.875 C 263.851562 227.792969 263.894531 227.027344 263.980469 226.179688 C 264.148438 224.867188 264.402344 224.570312 265.933594 223.976562 C 266.910156 223.636719 267.757812 223.296875 267.84375 223.296875 C 267.886719 223.257812 267.671875 223.765625 267.332031 224.402344 Z M 263.042969 226.308594 C 262.578125 228.382812 262.109375 229.105469 260.667969 229.867188 C 259.945312 230.207031 259.308594 230.460938 259.222656 230.375 C 259.179688 230.292969 259.308594 229.273438 259.5625 228.046875 C 259.945312 226.179688 260.199219 225.839844 261.304688 225.460938 C 263.300781 224.824219 263.34375 224.867188 263.042969 226.308594 Z M 258.332031 228.722656 C 257.820312 230.546875 257.441406 231.054688 256.335938 231.519531 C 255.570312 231.816406 254.933594 232.03125 254.890625 231.988281 C 254.808594 231.945312 255.230469 230.757812 255.742188 229.402344 C 256.464844 227.496094 256.972656 226.816406 257.738281 226.605469 C 258.332031 226.476562 258.839844 226.390625 258.882812 226.433594 C 258.96875 226.476562 258.714844 227.496094 258.332031 228.722656 Z M 255.1875 227.664062 C 255.1875 227.75 254.765625 228.894531 254.296875 230.207031 C 253.574219 231.988281 253.109375 232.621094 252.175781 232.960938 L 250.941406 233.386719 L 252.257812 230.757812 C 253.023438 229.316406 253.832031 228.003906 254.085938 227.832031 C 254.59375 227.496094 255.1875 227.410156 255.1875 227.664062 Z M 250.941406 231.054688 C 250.179688 232.367188 249.246094 233.640625 248.820312 233.851562 C 248.351562 234.105469 248.820312 233.132812 250.007812 231.351562 C 251.113281 229.742188 252.046875 228.511719 252.132812 228.554688 C 252.21875 228.640625 251.664062 229.742188 250.941406 231.054688 Z M 248.988281 230.96875 C 246.398438 234.613281 246.355469 234.65625 239.4375 236.5625 C 226.273438 240.25 218.078125 242.878906 205.082031 247.582031 C 202.027344 248.6875 203.765625 247.371094 208.269531 245.167969 C 220.242188 239.234375 231.75 234.699219 245.847656 230.207031 C 248.308594 229.445312 250.390625 228.808594 250.433594 228.808594 C 250.519531 228.765625 249.882812 229.78125 248.988281 230.96875 Z M 125.933594 234.402344 C 126.316406 235.082031 126.527344 235.714844 126.402344 235.800781 C 126.1875 236.011719 124.234375 233.132812 123.851562 231.945312 C 123.597656 231.265625 123.726562 231.308594 124.40625 232.15625 C 124.871094 232.75 125.59375 233.765625 125.933594 234.402344 Z M 260.285156 231.691406 C 260.285156 231.902344 259.476562 232.707031 258.542969 233.46875 L 256.804688 234.867188 L 257.480469 233.511719 C 258.332031 231.859375 260.285156 230.589844 260.285156 231.691406 Z M 255.742188 234.316406 C 254.808594 235.714844 252.894531 237.242188 252.046875 237.242188 C 251.960938 237.242188 252.34375 236.394531 252.894531 235.378906 C 253.832031 233.726562 255.105469 232.75 256.589844 232.621094 C 256.761719 232.582031 256.378906 233.34375 255.742188 234.316406 Z M 250.984375 236.351562 C 250.136719 237.667969 249.246094 238.515625 248.523438 238.726562 C 247.929688 238.851562 247.375 238.9375 247.292969 238.851562 C 246.992188 238.554688 250.5625 234.316406 251.238281 234.191406 C 252.429688 233.894531 252.429688 234.105469 250.984375 236.351562 Z M 248.097656 235.632812 C 246.101562 238.386719 244.445312 240.125 243.722656 240.335938 C 243.128906 240.507812 242.960938 240.421875 243.214844 239.996094 C 243.765625 238.9375 247.589844 235.125 248.054688 235.125 C 248.351562 235.125 248.351562 235.335938 248.097656 235.632812 Z M 243.257812 238.132812 C 242.28125 239.320312 241.050781 240.546875 240.582031 240.84375 C 239.5625 241.523438 202.152344 250.972656 201.8125 250.636719 C 201.175781 250 206.355469 248.007812 220.964844 243.175781 C 225.890625 241.523438 240.539062 237.15625 244.914062 236.011719 C 245 235.972656 244.277344 236.945312 243.257812 238.132812 Z M 130.050781 239.023438 C 131.070312 240.25 132.089844 241.734375 132.21875 242.328125 C 132.472656 243.175781 132.132812 242.964844 130.605469 241.269531 C 128.992188 239.488281 127.417969 236.820312 128.015625 236.820312 C 128.097656 236.820312 128.992188 237.835938 130.050781 239.023438 Z M 251.792969 238.683594 C 251.792969 238.8125 251.15625 239.277344 250.433594 239.785156 L 249.03125 240.71875 L 250.222656 239.617188 C 251.367188 238.554688 251.792969 238.300781 251.792969 238.683594 Z M 247.546875 240.464844 C 247.546875 240.71875 245.210938 242.753906 244.277344 243.304688 C 243.171875 243.9375 243.128906 243.21875 244.191406 242.074219 C 245.378906 240.761719 247.546875 239.742188 247.546875 240.464844 Z M 241.390625 243.386719 C 240.242188 244.40625 238.714844 245.464844 237.992188 245.675781 C 236.84375 246.101562 236.929688 245.929688 238.839844 244.191406 C 240.835938 242.371094 242.152344 241.566406 243.085938 241.523438 C 243.34375 241.523438 242.578125 242.371094 241.390625 243.386719 Z M 136.675781 245.421875 C 137.867188 246.566406 138.84375 247.667969 138.84375 247.921875 C 138.84375 248.429688 138.757812 248.347656 135.828125 246.015625 C 134.722656 245.167969 133.746094 244.109375 133.621094 243.601562 C 133.320312 242.457031 133.957031 242.835938 136.675781 245.421875 Z M 236.71875 244.53125 C 235.613281 245.550781 234.296875 246.566406 233.789062 246.863281 C 232.175781 247.710938 203.386719 253.730469 200.710938 253.773438 C 200.117188 253.773438 200.074219 253.644531 200.457031 253.007812 C 200.964844 252.203125 203.640625 251.441406 227.800781 245.335938 C 233.195312 243.980469 237.820312 242.835938 238.160156 242.792969 C 238.5 242.792969 237.820312 243.558594 236.71875 244.53125 Z M 132.132812 244.320312 C 133.238281 245.550781 134.085938 247.414062 133.449219 247.371094 C 133.023438 247.371094 130.347656 244.066406 130.347656 243.558594 C 130.347656 242.878906 131.027344 243.175781 132.132812 244.320312 Z M 139.5625 250.847656 C 139.859375 251.398438 139.988281 251.90625 139.902344 251.992188 C 139.691406 252.246094 135.445312 249.535156 135.445312 249.152344 C 135.445312 249.023438 135.316406 248.429688 135.148438 247.839844 C 134.894531 246.820312 134.933594 246.863281 136.972656 248.347656 C 138.121094 249.195312 139.265625 250.296875 139.5625 250.847656 Z M 236.082031 247.582031 C 236.082031 247.796875 233.023438 249.746094 232.175781 250.085938 C 230.902344 250.550781 231.324219 250.085938 233.40625 248.726562 C 235.1875 247.542969 236.082031 247.160156 236.082031 247.582031 Z M 145.421875 251.992188 C 145.125 252.289062 140.5 249.363281 140.117188 248.6875 C 139.859375 248.21875 140.835938 248.6875 142.621094 249.871094 C 144.234375 250.972656 145.464844 251.90625 145.421875 251.992188 Z M 229.03125 250.339844 C 227.164062 251.566406 225.421875 252.289062 222.070312 253.050781 C 214.550781 254.875 198.246094 257.417969 198.289062 256.78125 C 198.375 255.507812 199.859375 254.957031 207.671875 253.558594 C 216.546875 251.90625 229.796875 249.152344 230.09375 248.855469 C 230.179688 248.769531 230.5625 248.6875 230.902344 248.6875 C 231.242188 248.6875 230.433594 249.449219 229.03125 250.339844 Z M 135.0625 250.890625 C 135.742188 252.117188 135.148438 251.78125 134.128906 250.253906 C 133.40625 249.277344 133.363281 249.066406 133.875 249.492188 C 134.296875 249.828125 134.851562 250.464844 135.0625 250.890625 Z M 146.273438 254.109375 C 146.65625 255.128906 146.316406 255.128906 143.808594 254.152344 C 141.984375 253.476562 141.347656 252.964844 141.007812 252.035156 L 140.582031 250.847656 L 143.300781 252.160156 C 144.828125 252.925781 146.144531 253.773438 146.273438 254.109375 Z M 200.199219 251.230469 C 200.074219 251.441406 199.734375 251.652344 199.519531 251.652344 C 199.265625 251.652344 199.222656 251.441406 199.351562 251.230469 C 199.476562 250.972656 199.816406 250.804688 200.03125 250.804688 C 200.285156 250.804688 200.328125 250.972656 200.199219 251.230469 Z M 140.921875 255.128906 C 141.175781 255.847656 141.390625 256.527344 141.390625 256.609375 C 141.390625 257.164062 137.824219 254.238281 137.3125 253.304688 C 136.464844 251.609375 136.507812 251.609375 138.585938 252.753906 C 139.859375 253.476562 140.625 254.238281 140.921875 255.128906 Z M 199.054688 253.304688 C 198.757812 253.773438 198.203125 254.238281 197.824219 254.324219 C 197.183594 254.492188 197.144531 254.40625 197.566406 253.730469 C 197.824219 253.304688 198.332031 252.882812 198.714844 252.753906 C 199.054688 252.667969 199.394531 252.585938 199.476562 252.542969 C 199.519531 252.542969 199.351562 252.882812 199.054688 253.304688 Z M 195.742188 254.40625 C 195.445312 254.746094 194.933594 255.042969 194.59375 255.042969 C 194.042969 255.042969 194.042969 254.914062 194.46875 254.40625 C 194.765625 254.066406 195.273438 253.773438 195.613281 253.773438 C 196.167969 253.773438 196.167969 253.898438 195.742188 254.40625 Z M 151.367188 255.722656 C 154.171875 256.78125 153.703125 257.035156 150.308594 256.230469 C 148.949219 255.933594 147.972656 255.425781 147.675781 254.914062 C 147.292969 254.195312 147.335938 254.109375 148.015625 254.40625 C 148.480469 254.578125 149.96875 255.171875 151.367188 255.722656 Z M 220.582031 255.128906 C 217.523438 256.738281 210.179688 258.304688 197.992188 259.875 C 196.71875 260.042969 196.675781 260 197.101562 259.070312 C 197.441406 258.265625 197.992188 258.011719 199.734375 257.796875 C 206.355469 256.949219 213.832031 255.804688 217.183594 255.085938 C 222.109375 254.027344 222.621094 254.027344 220.582031 255.128906 Z M 144.574219 255.59375 C 146.570312 256.355469 147.121094 256.78125 147.378906 257.714844 C 147.675781 258.773438 147.632812 258.859375 146.570312 258.601562 C 143.9375 257.96875 142.792969 257.246094 142.324219 255.933594 C 142.070312 255.210938 141.898438 254.621094 141.941406 254.621094 C 142.027344 254.621094 143.171875 255.042969 144.574219 255.59375 Z M 192.558594 255.042969 C 192.429688 255.253906 192.089844 255.46875 191.878906 255.46875 C 191.621094 255.46875 191.582031 255.253906 191.707031 255.042969 C 191.835938 254.789062 192.175781 254.621094 192.386719 254.621094 C 192.640625 254.621094 192.683594 254.789062 192.558594 255.042969 Z M 197.441406 256.316406 C 197.015625 257.121094 195.316406 257.542969 195.316406 256.824219 C 195.316406 256.230469 196.335938 255.46875 197.101562 255.46875 C 197.78125 255.46875 197.824219 255.59375 197.441406 256.316406 Z M 193.957031 256.738281 C 193.660156 257.203125 193.066406 257.585938 192.597656 257.585938 C 191.835938 257.585938 191.792969 257.542969 192.558594 256.738281 C 192.980469 256.273438 193.574219 255.890625 193.914062 255.890625 C 194.382812 255.890625 194.382812 256.058594 193.957031 256.738281 Z M 142.238281 258.816406 C 143.300781 260.847656 142.238281 260.554688 140.5 258.390625 L 139.097656 256.652344 L 140.457031 257.332031 C 141.175781 257.714844 141.984375 258.390625 142.238281 258.816406 Z M 151.664062 257.542969 C 153.449219 257.925781 154.085938 258.265625 154.257812 258.898438 C 154.46875 259.746094 154.382812 259.746094 151.878906 259.492188 C 148.992188 259.152344 148.820312 259.113281 148.394531 257.628906 C 148.140625 256.867188 148.226562 256.652344 148.691406 256.824219 C 148.992188 256.949219 150.347656 257.289062 151.664062 257.542969 Z M 190.222656 257.375 C 189.925781 257.714844 189.414062 258.011719 189.074219 258.011719 C 188.523438 258.011719 188.523438 257.882812 188.949219 257.375 C 189.246094 257.035156 189.753906 256.738281 190.09375 256.738281 C 190.644531 256.738281 190.644531 256.867188 190.222656 257.375 Z M 187.035156 257.585938 C 186.910156 257.796875 186.441406 258.011719 186.058594 258.011719 C 185.421875 258.011719 185.421875 257.925781 185.976562 257.585938 C 186.824219 257.035156 187.375 257.035156 187.035156 257.585938 Z M 161.644531 259.410156 C 161.773438 259.578125 160.457031 259.707031 158.714844 259.707031 C 155.953125 259.707031 155.488281 259.578125 155.316406 258.941406 C 155.105469 258.179688 155.273438 258.179688 158.203125 258.644531 C 159.945312 258.898438 161.472656 259.238281 161.644531 259.410156 Z M 196.082031 259.070312 C 195.742188 259.832031 195.273438 260.128906 194.382812 260.128906 C 192.898438 260.128906 192.980469 259.324219 194.511719 258.5625 C 196.167969 257.671875 196.632812 257.839844 196.082031 259.070312 Z M 192.261719 259.28125 C 191.921875 259.832031 191.242188 260.128906 190.476562 260.128906 C 189.289062 260.128906 189.246094 260.128906 190.007812 259.28125 C 190.433594 258.816406 191.242188 258.433594 191.792969 258.433594 C 192.683594 258.433594 192.726562 258.519531 192.261719 259.28125 Z M 146.484375 259.535156 C 147.84375 259.746094 148.140625 260 148.523438 261.316406 C 148.777344 262.164062 148.949219 262.925781 148.863281 263.011719 C 148.777344 263.097656 147.886719 262.925781 146.953125 262.671875 C 145.679688 262.332031 144.914062 261.824219 144.363281 260.847656 C 143.34375 259.195312 143.300781 258.6875 144.191406 259.027344 C 144.574219 259.152344 145.59375 259.410156 146.484375 259.535156 Z M 184.703125 259.492188 C 184.402344 259.832031 183.683594 260.128906 183.089844 260.128906 C 182.027344 260.128906 182.027344 260.085938 182.832031 259.492188 C 183.257812 259.152344 183.980469 258.859375 184.445312 258.859375 C 185.082031 258.859375 185.125 258.984375 184.703125 259.492188 Z M 188.523438 259.492188 C 188.226562 259.832031 187.503906 260.128906 186.953125 260.128906 C 186.019531 260.128906 185.933594 260.042969 186.398438 259.492188 C 186.695312 259.152344 187.417969 258.859375 187.972656 258.859375 C 188.90625 258.859375 188.988281 258.941406 188.523438 259.492188 Z M 176.507812 259.535156 C 176.378906 259.664062 175.996094 259.707031 175.699219 259.578125 C 175.359375 259.449219 175.488281 259.324219 175.953125 259.324219 C 176.421875 259.28125 176.675781 259.410156 176.507812 259.535156 Z M 180.457031 259.707031 C 179.605469 260.257812 178.628906 260.257812 178.96875 259.707031 C 179.097656 259.449219 179.648438 259.28125 180.15625 259.28125 C 180.921875 259.28125 180.964844 259.367188 180.457031 259.707031 Z M 209.203125 259.535156 C 209.074219 259.664062 208.691406 259.707031 208.394531 259.578125 C 208.054688 259.449219 208.183594 259.324219 208.648438 259.324219 C 209.117188 259.28125 209.371094 259.410156 209.203125 259.535156 Z M 168.4375 259.960938 C 168.3125 260.085938 167.929688 260.128906 167.632812 260 C 167.292969 259.875 167.417969 259.746094 167.886719 259.746094 C 168.351562 259.707031 168.609375 259.832031 168.4375 259.960938 Z M 205.71875 260.382812 C 202.789062 261.144531 196.082031 262.289062 195.785156 262.035156 C 195.191406 261.402344 196.886719 260.890625 201.09375 260.382812 C 207.121094 259.664062 208.3125 259.664062 205.71875 260.382812 Z M 154.851562 260.722656 C 154.894531 260.765625 155.019531 261.273438 155.191406 261.867188 C 155.445312 262.925781 155.359375 263.011719 153.535156 263.265625 C 150.859375 263.6875 150.09375 263.351562 149.585938 261.613281 L 149.117188 260.128906 L 151.921875 260.382812 C 153.492188 260.554688 154.808594 260.679688 154.851562 260.722656 Z M 165.59375 260.554688 C 166.613281 260.847656 166.613281 260.847656 165.167969 261.273438 C 164.148438 261.570312 163.597656 261.527344 163.386719 261.230469 C 162.621094 260.128906 163.386719 259.875 165.59375 260.554688 Z M 162.113281 261.273438 C 162.027344 261.78125 161.21875 262.164062 159.4375 262.503906 C 158.035156 262.800781 156.761719 262.925781 156.632812 262.839844 C 156.464844 262.757812 156.25 262.207031 156.167969 261.613281 C 155.953125 260.554688 155.953125 260.554688 159.097656 260.554688 C 161.855469 260.554688 162.238281 260.636719 162.113281 261.273438 Z M 173.578125 260.976562 C 173.152344 261.230469 172.515625 261.273438 171.878906 261.019531 C 171.027344 260.636719 171.113281 260.59375 172.601562 260.59375 C 173.917969 260.59375 174.128906 260.679688 173.578125 260.976562 Z M 177.695312 261.402344 C 177.566406 261.613281 176.804688 261.824219 176.082031 261.824219 C 175.0625 261.824219 174.894531 261.695312 175.359375 261.402344 C 176.210938 260.847656 178.035156 260.847656 177.695312 261.402344 Z M 182.152344 261.613281 C 181.601562 262.289062 179.605469 262.503906 179.605469 261.910156 C 179.605469 261.273438 180.15625 260.976562 181.433594 260.976562 C 182.492188 260.976562 182.621094 261.0625 182.152344 261.613281 Z M 186.316406 261.824219 C 185.933594 262.417969 185.296875 262.671875 184.320312 262.671875 C 182.917969 262.671875 182.875 262.671875 183.640625 261.824219 C 184.066406 261.359375 184.957031 260.976562 185.636719 260.976562 C 186.738281 260.976562 186.78125 261.0625 186.316406 261.824219 Z M 190.5625 261.824219 C 190.179688 262.375 189.542969 262.671875 188.652344 262.671875 C 187.335938 262.671875 187.292969 262.585938 187.757812 261.824219 C 188.140625 261.273438 188.777344 260.976562 189.667969 260.976562 C 190.984375 260.976562 191.027344 261.0625 190.5625 261.824219 Z M 194.636719 261.570312 C 194.425781 262.121094 191.960938 262.800781 191.539062 262.417969 C 191.453125 262.332031 191.621094 261.992188 191.921875 261.613281 C 192.597656 260.765625 194.976562 260.722656 194.636719 261.570312 Z M 170.136719 262.035156 C 170.265625 262.460938 164.828125 265.003906 164.488281 264.707031 C 164.40625 264.578125 164.277344 264.070312 164.234375 263.519531 C 164.105469 262.671875 164.363281 262.460938 166.019531 261.992188 C 168.183594 261.402344 169.925781 261.402344 170.136719 262.035156 Z M 175.359375 262.671875 C 175.699219 262.671875 175.230469 263.179688 174.339844 263.773438 C 173.023438 264.664062 172.640625 264.792969 172.34375 264.324219 C 171.496094 262.96875 172.21875 262.121094 173.875 262.460938 C 174.339844 262.585938 175.019531 262.671875 175.359375 262.671875 Z M 163.257812 263.984375 C 163.640625 265.128906 163.300781 265.46875 160.371094 266.445312 C 157.78125 267.335938 157.78125 267.335938 157.3125 265.34375 C 157.015625 263.902344 156.886719 263.984375 159.859375 263.390625 C 161.984375 262.925781 163.003906 263.097656 163.257812 263.984375 Z M 179.265625 263.5625 C 179.4375 264.070312 174.636719 268.859375 174.128906 268.734375 C 174 268.691406 173.617188 268.097656 173.363281 267.375 C 172.8125 266.105469 172.855469 266.0625 175.019531 264.578125 C 177.269531 263.097656 178.96875 262.671875 179.265625 263.5625 Z M 191.792969 268.265625 C 190.644531 271.148438 189.117188 275.851562 188.351562 278.777344 L 187.035156 284.074219 L 185.804688 279.117188 L 184.617188 274.15625 L 186.1875 271.277344 C 190.007812 264.324219 190.605469 263.5625 192.046875 263.390625 C 192.8125 263.308594 193.535156 263.179688 193.660156 263.179688 C 193.789062 263.136719 192.980469 265.425781 191.792969 268.265625 Z M 148.355469 263.945312 C 149.074219 263.945312 149.457031 264.367188 149.96875 265.851562 L 150.6875 267.757812 L 149.753906 267.292969 C 148.566406 266.699219 146.0625 264.324219 146.0625 263.816406 C 146.0625 263.605469 146.359375 263.5625 146.738281 263.6875 C 147.121094 263.816406 147.84375 263.945312 148.355469 263.945312 Z M 171.113281 263.902344 C 171.113281 264.113281 171.242188 264.578125 171.367188 264.917969 C 171.539062 265.382812 170.859375 266.0625 169.160156 267.121094 C 165.804688 269.285156 165.804688 269.285156 165.339844 267.460938 L 164.957031 265.851562 L 167.503906 264.707031 C 170.265625 263.476562 171.113281 263.308594 171.113281 263.902344 Z M 184.234375 264.238281 C 183.9375 264.664062 183.257812 265.511719 182.75 266.148438 L 181.8125 267.292969 L 181.347656 266.019531 C 180.710938 264.15625 181.132812 263.519531 183.089844 263.519531 C 184.660156 263.519531 184.742188 263.5625 184.234375 264.238281 Z M 188.3125 265.300781 C 187.714844 266.316406 186.527344 268.394531 185.679688 270.003906 L 184.105469 272.84375 L 183.34375 271.0625 C 182.324219 268.476562 182.367188 268.183594 184.53125 265.722656 C 186.1875 263.859375 186.695312 263.519531 187.929688 263.519531 L 189.414062 263.519531 Z M 156.378906 265.765625 C 156.589844 266.65625 156.71875 267.460938 156.632812 267.503906 C 156.550781 267.589844 155.570312 267.800781 154.46875 267.925781 C 152.683594 268.183594 152.429688 268.140625 151.878906 267.25 C 151.539062 266.699219 151.113281 265.851562 150.984375 265.34375 C 150.730469 264.496094 150.859375 264.410156 152.515625 264.238281 C 155.785156 263.945312 155.996094 264.027344 156.378906 265.765625 Z M 180.964844 268.394531 C 180.457031 269.242188 176.082031 274.960938 175.953125 274.960938 C 175.871094 274.960938 175.488281 273.902344 175.105469 272.632812 L 174.425781 270.257812 L 177.144531 267.800781 L 179.816406 265.300781 L 180.539062 266.65625 C 180.921875 267.375 181.09375 268.140625 180.964844 268.394531 Z M 164.574219 268.265625 L 165.125 269.835938 L 162.492188 271.148438 C 161.09375 271.867188 159.777344 272.292969 159.605469 272.125 C 159.097656 271.574219 158.289062 268.5625 158.542969 268.308594 C 158.96875 267.886719 162.789062 266.570312 163.429688 266.65625 C 163.765625 266.65625 164.277344 267.417969 164.574219 268.265625 Z M 172.683594 268.351562 C 173.109375 269.75 173.066406 269.878906 170.730469 272.164062 C 169.414062 273.480469 168.140625 274.539062 167.886719 274.539062 C 167.417969 274.539062 166.441406 271.785156 166.441406 270.683594 C 166.484375 270.089844 170.902344 266.996094 171.792969 266.953125 C 172.046875 266.910156 172.429688 267.546875 172.683594 268.351562 Z M 157.527344 269.664062 C 158.503906 272.25 158.503906 272.84375 157.566406 272.84375 C 156.210938 272.84375 154.339844 271.785156 153.535156 270.554688 C 152.640625 269.15625 152.640625 269.113281 154.042969 268.902344 C 156.71875 268.519531 157.101562 268.605469 157.527344 269.664062 Z M 182.535156 271.742188 L 183.386719 274.03125 L 181.007812 279.371094 C 179.691406 282.335938 178.503906 284.625 178.375 284.5 C 178.246094 284.328125 177.738281 282.507812 177.226562 280.429688 L 176.335938 276.65625 L 178.078125 274.199219 C 180.15625 271.234375 181.472656 269.496094 181.601562 269.453125 C 181.644531 269.453125 182.070312 270.46875 182.535156 271.742188 Z M 166.101562 273.480469 L 166.738281 275.808594 L 165.382812 276.65625 C 163.597656 277.761719 162.960938 277.71875 161.898438 276.53125 C 160.964844 275.515625 159.902344 273.691406 160.160156 273.480469 C 160.582031 273.140625 164.617188 271.191406 165 271.148438 C 165.253906 271.148438 165.761719 272.207031 166.101562 273.480469 Z M 174.765625 275.257812 C 174.976562 276.742188 174.851562 277.039062 172.8125 279.328125 C 170.222656 282.167969 169.839844 282.082031 168.691406 278.523438 L 168.015625 276.277344 L 170.730469 273.734375 L 173.449219 271.234375 L 173.957031 272.421875 C 174.253906 273.097656 174.59375 274.371094 174.765625 275.257812 Z M 174.765625 275.257812 " fill-opacity="1" fill-rule="nonzero"/></g></svg>